<?xml version="1.0" encoding="utf-8"?>
<!-- Generator: Adobe Illustrator 17.1.0, SVG Export Plug-In . SVG Version: 6.00 Build 0)  -->
<!DOCTYPE svg PUBLIC "-//W3C//DTD SVG 1.1//EN" "http://www.w3.org/Graphics/SVG/1.1/DTD/svg11.dtd">
<svg version="1.1" id="Layer_1" xmlns="http://www.w3.org/2000/svg" xmlns:xlink="http://www.w3.org/1999/xlink" x="0px" y="0px"
	 viewBox="0 0 612 792" enable-background="new 0 0 612 792" xml:space="preserve">
<g>
	<path fill="#376EB1" d="M306.5,192.8c-112.3,0-203.3,91-203.3,203.3c0,112.3,91,203.3,203.3,203.3c0.9,0,1.7,0,2.6,0
		c-1.7-4.8-2.6-10-2.6-15.5c0-6.7,1.4-13,3.9-18.7l0,0c-1.3,0-2.6,0.1-3.9,0.1c-93.5,0-169.2-75.8-169.2-169.2
		S213,226.9,306.5,226.9c90.3,0,164.1,70.8,169,159.9c3.1-0.6,6.2-1,9.5-1c9.1,0,17.6,2.6,24.8,7.1
		C508,282.1,417.7,192.8,306.5,192.8z"/>
</g>
<path fill="#9EC3E8" d="M310.4,565.2c6.7-15.4,21.5-26.5,39-28c-3.3-6.4-5.1-13.6-5.1-21.3c0-24.3,18.6-44.3,42.3-46.7
	c0-0.1,0-0.2,0-0.2c0-25.9,21-46.9,46.9-46.9c1.9,0,3.8,0.1,5.7,0.4c3.9-18,18.2-32,36.3-35.8c-4.8-89.1-78.6-159.9-169-159.9
	c-93.5,0-169.2,75.8-169.2,169.2S213,565.3,306.5,565.3C307.8,565.3,309.1,565.2,310.4,565.2z"/>
<polygon fill="#FFFFFF" points="239.2,272.6 266.5,305.5 306.2,289.6 283.4,325.7 310.7,358.6 269.3,348.1 246.5,384.2 243.7,341.6 
	202.3,331.1 242,315.3 "/>
<polygon fill="#FFFFFF" points="358,312.5 385.3,345.3 425,329.5 402.2,365.6 429.6,398.5 388.1,388 365.4,424.1 362.6,381.5 
	321.1,371 360.8,355.1 "/>
<polygon fill="#FFFFFF" points="242.5,409.6 269.8,442.4 309.5,426.6 286.7,462.7 314,495.6 272.6,485.1 249.8,521.2 247,478.6 
	205.6,468.1 245.3,452.2 "/>
<path fill="#9EC3E8" d="M497,401.9c-21.2,0-39.3,14-44.9,34c-1.1-0.1-2.2-0.1-3.3-0.1c-25.2,0-45.8,20-46.7,45
	c-23.3,2.6-41.5,22.4-41.5,46.4c0,5,0.8,10,2.4,14.7c-20.7,5-35.5,23.4-35.5,45.3c0,3,0.3,5.9,0.8,8.7c3.7,0,7.2-0.2,10.6-0.8
	c-0.6-2.5-0.9-5.1-0.9-7.8c0-18.8,14.1-34.3,32.9-36l7.7-0.7l-3.5-6.9c-2.6-5.1-4-10.7-4-16.4c0-19.9,16.2-36.1,36-36.2l6,0
	l-0.4-5.7c-0.1-0.9-0.2-1.9-0.2-2.9c0-20,16.2-36.2,36.2-36.2c2,0,4.2,0.2,6.4,0.6l5.2,0.9l0.9-5.2c2.9-17.5,17.9-30.2,35.6-30.2
	c3.9,0,7.4,0.5,10.9,1.7c0.7-3.5,1.8-7.1,2.3-10.3C506,402.5,501.6,401.9,497,401.9z"/>
</svg>
