<?xml version="1.0" encoding="UTF-8" standalone="no"?>
<svg width="75px" height="75px" viewBox="0 0 75 75" version="1.1" xmlns="http://www.w3.org/2000/svg" xmlns:xlink="http://www.w3.org/1999/xlink" xmlns:sketch="http://www.bohemiancoding.com/sketch/ns">
    <!-- Generator: Sketch 3.3.1 (12005) - http://www.bohemiancoding.com/sketch -->
    <title>snack_tn_mark</title>
    <desc>Created with Sketch.</desc>
    <defs></defs>
    <g id="Page-1" stroke="none" stroke-width="1" fill="none" fill-rule="evenodd" sketch:type="MSPage">
        <g id="Home" sketch:type="MSArtboardGroup" transform="translate(-474.000000, -687.000000)">
            <g id="Footer-Section" sketch:type="MSLayerGroup" transform="translate(0.000000, 674.000000)">
                <rect id="Rectangle-9" fill="#264D7E" sketch:type="MSShapeGroup" x="0" y="0" width="1024" height="100"></rect>
                <g id="snack_tn_mark" transform="translate(474.000000, 13.000000)" sketch:type="MSShapeGroup">
                    <path d="M37.5,0.147058824 C16.8058968,0.147058824 0.0368550369,16.875 0.0368550369,37.5183824 C0.0368550369,58.1617647 16.8058968,74.8897059 37.5,74.8897059 L37.9791155,74.8897059 C37.6658477,74.0073529 37.5,73.0514706 37.5,72.0404412 C37.5,70.8088235 37.7579853,69.6507353 38.2186732,68.6029412 L38.2186732,68.6029412 C37.9791155,68.6029412 37.7395577,68.6213235 37.5,68.6213235 C20.2702703,68.6213235 6.32063882,54.6875 6.32063882,37.5183824 C6.32063882,20.3492647 20.2702703,6.41544118 37.5,6.41544118 C54.1400491,6.41544118 67.7395577,19.4301471 68.6425061,35.8088235 C69.2137592,35.6985294 69.7850123,35.625 70.3931204,35.625 C72.0700246,35.625 73.6363636,36.1029412 74.963145,36.9301471 C74.6314496,16.5625 57.9914005,0.147058824 37.5,0.147058824 L37.5,0.147058824 Z" id="Shape" fill="#376EB1"></path>
                    <path d="M38.2186732,68.6029412 C39.453317,65.7720588 42.1805897,63.7316176 45.4054054,63.4558824 C44.7972973,62.2794118 44.465602,60.9558824 44.465602,59.5404412 C44.465602,55.0735294 47.8931204,51.3970588 52.2604423,50.9558824 L52.2604423,50.9191176 C52.2604423,46.1580882 56.1302211,42.2977941 60.9029484,42.2977941 C61.2530713,42.2977941 61.6031941,42.3161765 61.953317,42.3713235 C62.6719902,39.0625 65.3071253,36.4889706 68.6425061,35.7904412 C67.7579853,19.4117647 54.1584767,6.39705882 37.5,6.39705882 C20.2702703,6.39705882 6.32063882,20.3308824 6.32063882,37.5 C6.32063882,54.6691176 20.2702703,68.6213235 37.5,68.6213235 C37.7395577,68.6213235 37.9791155,68.6029412 38.2186732,68.6029412 L38.2186732,68.6029412 Z" id="Shape" fill="#9EC3E8"></path>
                    <path d="M25.0982801,14.8161765 L30.1289926,20.8639706 L37.4447174,17.9411765 L33.2432432,24.5772059 L38.2739558,30.625 L30.6449631,28.6948529 L26.4434889,35.3308824 L25.9275184,27.5 L18.2985258,25.5698529 L25.6142506,22.6654412 L25.0982801,14.8161765 Z" id="Shape" fill="#FFFFFF"></path>
                    <path d="M46.990172,22.1507353 L52.0208845,28.1801471 L59.3366093,25.2757353 L55.1351351,31.9117647 L60.1842752,37.9595588 L52.536855,36.0294118 L48.3538084,42.6654412 L47.8378378,34.8345588 L40.1904177,32.9044118 L47.5061425,29.9816176 L46.990172,22.1507353 Z" id="Shape" fill="#FFFFFF"></path>
                    <path d="M25.7063882,40 L30.7371007,46.0294118 L38.0528256,43.125 L33.8513514,49.7610294 L38.8820639,55.8088235 L31.2530713,53.8786765 L27.0515971,60.5147059 L26.5356265,52.6838235 L18.9066339,50.7536765 L26.2223587,47.8308824 L25.7063882,40 Z" id="Shape" fill="#FFFFFF"></path>
                    <path d="M72.6044226,38.5845588 C68.6977887,38.5845588 65.3624079,41.1580882 64.3304668,44.8345588 C64.1277641,44.8161765 63.9250614,44.8161765 63.7223587,44.8161765 C59.0786241,44.8161765 55.2825553,48.4926471 55.1167076,53.0882353 C50.8230958,53.5661765 47.4692875,57.2058824 47.4692875,61.6176471 C47.4692875,62.5367647 47.6167076,63.4558824 47.9115479,64.3198529 C44.0970516,65.2389706 41.3697789,68.6213235 41.3697789,72.6470588 C41.3697789,73.1985294 41.4250614,73.7316176 41.517199,74.2463235 C42.1990172,74.2463235 42.8439803,74.2095588 43.470516,74.0992647 C43.3599509,73.6397059 43.3046683,73.1617647 43.3046683,72.6654412 C43.3046683,69.2095588 45.9029484,66.3602941 49.3673219,66.0477941 L50.7862408,65.9191176 L50.1412776,64.6507353 C49.6621622,63.7132353 49.4041769,62.6838235 49.4041769,61.6360294 C49.4041769,57.9779412 52.3894349,55 56.0380835,54.9816176 L57.1437346,54.9816176 L57.0700246,53.9338235 C57.0515971,53.7683824 57.0331695,53.5845588 57.0331695,53.4007353 C57.0331695,49.7242647 60.0184275,46.7463235 63.7039312,46.7463235 C64.0724816,46.7463235 64.477887,46.7830882 64.8832924,46.8566176 L65.8415233,47.0220588 L66.007371,46.0661765 C66.541769,42.8492647 69.3058968,40.5147059 72.5675676,40.5147059 C73.2862408,40.5147059 73.9312039,40.6066176 74.5761671,40.8272059 C74.7051597,40.1838235 74.9078624,39.5220588 75,38.9338235 C74.2628993,38.6948529 73.4520885,38.5845588 72.6044226,38.5845588 L72.6044226,38.5845588 Z" id="Shape" fill="#9EC3E8"></path>
                </g>
            </g>
        </g>
    </g>
</svg>