<?xml version="1.0" encoding="utf-8"?>
<!-- Generator: Adobe Illustrator 17.1.0, SVG Export Plug-In . SVG Version: 6.00 Build 0)  -->
<!DOCTYPE svg PUBLIC "-//W3C//DTD SVG 1.1//EN" "http://www.w3.org/Graphics/SVG/1.1/DTD/svg11.dtd">
<svg version="1.1" id="Layer_2" xmlns="http://www.w3.org/2000/svg" xmlns:xlink="http://www.w3.org/1999/xlink" x="0px" y="0px"
	 viewBox="0 0 612 792" enable-background="new 0 0 612 792" xml:space="preserve">
<g>
	<path fill="#356DB1" d="M301.6,241.7c-52.7,0-95.4,42.7-95.4,95.4c0,52.7,42.7,95.4,95.4,95.4c0.4,0,0.8,0,1.2,0
		c-0.8-2.3-1.2-4.7-1.2-7.3c0-3.1,0.7-6.1,1.8-8.8l0,0c-0.6,0-1.2,0-1.8,0c-43.9,0-79.4-35.6-79.4-79.4s35.6-79.4,79.4-79.4
		c42.4,0,77,33.2,79.3,75c1.4-0.3,2.9-0.5,4.5-0.5c4.3,0,8.3,1.2,11.6,3.3C396.2,283.6,353.8,241.7,301.6,241.7z"/>
</g>
<path fill="#98C6FE" d="M303.4,416.5c3.2-7.2,10.1-12.5,18.3-13.1c-1.5-3-2.4-6.4-2.4-10c0-11.4,8.7-20.8,19.8-21.9c0,0,0-0.1,0-0.1
	c0-12.2,9.8-22,22-22c0.9,0,1.8,0.1,2.7,0.2c1.9-8.4,8.6-15,17-16.8c-2.3-41.8-36.9-75-79.3-75c-43.9,0-79.4,35.6-79.4,79.4
	s35.6,79.4,79.4,79.4C302.2,416.5,302.8,416.5,303.4,416.5z"/>
<g>
	<polygon fill="#FFFFFF" points="346.5,322.8 357.2,305.8 338.6,313.3 325.8,297.9 327.1,317.9 308.5,325.3 327.9,330.2 
		329.2,350.2 339.9,333.3 359.3,338.2 	"/>
	<polygon fill="#FFFFFF" points="272.1,311.5 273.4,331.5 284.1,314.6 303.6,319.5 290.7,304.1 301.4,287.1 282.8,294.6 270,279.1 
		271.3,299.1 252.7,306.6 	"/>
	<polygon fill="#FFFFFF" points="303,351.4 284.4,358.8 271.5,343.4 272.9,363.4 254.2,370.9 273.7,375.8 275,395.8 285.7,378.8 
		305.1,383.8 292.3,368.4 	"/>
</g>
<path fill="#98C6FE" d="M391,339.8c-9.9,0-18.5,6.6-21.1,16c-0.5,0-1-0.1-1.5-0.1c-11.8,0-21.5,9.4-21.9,21.1
	c-10.9,1.2-19.5,10.5-19.5,21.8c0,2.4,0.4,4.7,1.1,6.9c-9.7,2.4-16.7,11-16.7,21.3c0,1.4,0.1,2.8,0.4,4.1c1.7,0,3.4-0.1,5-0.4
	c-0.3-1.2-0.4-2.4-0.4-3.7c0-8.8,6.6-16.1,15.4-16.9l3.6-0.3l-1.7-3.2c-1.2-2.4-1.9-5-1.9-7.7c0-9.3,7.6-16.9,16.9-17l2.8,0
	l-0.2-2.7c0-0.4-0.1-0.9-0.1-1.3c0-9.4,7.6-17,17-17c1,0,1.9,0.1,3,0.3l2.5,0.4l0.4-2.5c1.4-8.2,8.4-14.2,16.7-14.2
	c1.8,0,3.5,0.3,5.1,0.8c0.3-1.6,0.9-3.3,1.1-4.8C395.2,340.1,393.1,339.8,391,339.8z"/>
<g>
	<path fill="#98C6FE" d="M211.9,506c0,3.9,2.1,6.2,6.1,7c0.8,0.2,1.7,0.2,2.7,0.2c6.6,0,11.8-2.1,15.6-6.3c3.8-4.2,5.8-9.6,5.8-16
		c0-2.5-0.5-4.8-1.4-7c-0.9-2.1-2.1-3.9-3.4-5.3c-1.4-1.4-2.9-2.8-4.5-4.2c-1.6-1.4-3.1-2.7-4.5-3.9c-1.4-1.2-2.5-2.5-3.4-4.2
		c-0.9-1.6-1.4-3.4-1.4-5.2c0-4.8,2.2-9.3,6.5-13.4c4.3-4.1,9-6.1,14-6.1c1,0,1.7,0.4,2.2,1.1c0.5,0.7,0.7,1.5,0.7,2.2l-0.1,1
		c-0.4-0.2-1.3-0.3-2.8-0.3c-3.4,0-6.6,1.6-9.8,4.7c-3.2,3.2-4.7,6.8-4.7,11c0,1.7,0.5,3.3,1.4,4.9c0.9,1.6,2.1,3,3.4,4.2
		c1.4,1.2,2.8,2.6,4.4,4.1c1.6,1.5,3,3,4.4,4.4c1.4,1.4,2.5,3.2,3.4,5.3c0.9,2.1,1.4,4.3,1.4,6.6c0,6.4-2.6,12-7.9,17
		c-5.3,4.9-11.7,7.4-19.5,7.4c-6.5,0-10.6-2.1-12.4-6.3c-1.4-3.5-0.8-7.3,1.6-11.5c2.4-4.2,5.9-7,10.5-8.5c1.7-0.5,3.2-0.8,4.5-0.8
		c1.3,0,2.2,0.2,2.7,0.7c0.5,0.4,0.8,1.1,1,2.1c-4.9,0-9.2,2-12.7,6C213.3,499.9,211.9,502.9,211.9,506z M248.5,462.4
		c0,0.3-0.2,0.4-0.7,0.4c-0.5,0-1-0.1-1.4-0.3c-0.4-0.2-0.6-0.5-0.6-0.9c0-5.4,0.6-9.7,1.8-12.9c1.2-3.3,2.8-4.9,4.8-4.9
		c0.5,0,1,0.2,1.3,0.6c0.4,0.4,0.6,0.8,0.6,1.4c-2.4,2.4-4.1,5.9-5.1,10.6C248.7,458.3,248.5,460.3,248.5,462.4z"/>
	<path fill="#98C6FE" d="M261.7,490c6.8-16.8,13.4-25.2,19.8-25.2c2.7,0,4,1.3,4,3.9c-0.4,1.2-0.8,2.8-1.4,4.8
		c-0.6,2-1.4,5.5-2.3,10.6c-1,5.1-1.5,9.6-1.5,13.4c0,5.6,0.8,8.4,2.4,8.4c0.6,0,1.2-0.2,1.8-0.7c0.6-0.5,1-0.7,1.2-0.7
		c0.7,0,0.7,0.6,0,1.7c-0.3,0.4-0.7,0.9-1.5,1.5c-0.7,0.6-1.4,0.9-2.2,0.9c-2,0-3.6-1.4-4.7-4.3c-1.1-2.9-1.7-6.6-1.7-11.2
		c0-7.3,1.1-15.2,3.4-23.9c0.2-0.7,0-1-0.6-1c-0.4,0-0.9,0.2-1.4,0.6c-2.5,2.2-5.2,5.9-8,11c-2.8,5.1-5,9.7-6.5,13.7
		c-1.6,4-2.4,6.4-2.4,7c0,0.7-0.4,1-1.1,1c-1.7,0-2.5-2.1-2.5-6.2c0-7.8,0.8-14.9,2.4-21.3c1.6-6.4,3.5-9.5,5.8-9.5
		c0.9,0,1.4,0.6,1.4,1.7c-2.4,7.8-4.2,15.8-5.2,23.9H261.7z"/>
	<path fill="#98C6FE" d="M297.6,502.8c-4.3,0-6.5-3.4-6.5-10.2c0-4,1-8.5,3-13.3c2.8-6.8,6.4-11.4,11-13.9c1.9-1.1,3.8-1.6,5.4-1.6
		c1.7,0,3,0.4,4,1.1c1,0.7,1.6,1.5,1.9,2.2l0.5,1c-0.2,0.9-0.6,1.3-1.3,1.3c-0.8,0-1.3-0.2-1.5-0.6c-0.1-0.4-0.3-0.7-0.4-1
		c-0.2-0.3-0.5-0.7-1.1-1.2c-0.6-0.5-1.2-0.7-2-0.7c-3.4,0-6.5,3.1-9.3,9.2c-3.2,7.1-4.7,13.8-4.7,20c0,3.2,0.6,4.7,1.9,4.7
		c1,0,2.4-1.1,4.2-3.4c1.8-2.2,3.7-5,5.7-8.4c3.5-5.8,6.3-10.8,8.4-15.1c1.8-3.8,3.6-5.7,5.5-5.7c1,0,1.5,0.6,1.5,1.8
		c-0.5,1-1.1,2.4-1.8,4.3s-1.7,5.5-2.9,11c-1.2,5.5-1.8,10.9-1.8,16.3c0,5.4,0.8,8.1,2.4,8.1c0.6,0,1.2-0.3,1.7-0.8s1-1.4,1.4-2.5
		c0.2-0.6,0.5-0.9,1.1-0.9c0.2,0,0.4,0.1,0.5,0.2c0.1,0.2,0.1,0.4,0,0.8c-0.1,0.4-0.3,0.9-0.6,1.5c-0.3,0.7-0.8,1.5-1.7,2.6
		s-1.8,1.7-2.7,1.7c-2.2,0-3.9-1.4-5.1-4.3c-1.2-2.9-1.8-6.3-1.8-10.2s0.3-7.7,0.9-11.4h-0.8C305.9,497,300.9,502.8,297.6,502.8z"/>
	<path fill="#98C6FE" d="M350.9,495.5c0.7,0,1,0.2,1,0.5v0.2c-0.2,0.6-0.8,1.5-1.7,2.8c-0.9,1.3-1.9,2.3-2.7,3.1s-2,1.5-3.4,2.2
		c-1.4,0.7-2.8,1-4.2,1c-5.5,0-9-2.7-10.6-8c-1.4-4.9-0.8-10.6,1.7-16.9c2.5-6.3,5.9-10.8,10.3-13.6c2.3-1.4,4.5-2.1,6.6-2.1
		c2.1,0,3.6,0.6,4.6,1.8c1.4-4.6,3.2-6.9,5.4-6.9c0.8,0,1.3,0.4,1.3,1.3c-0.4,0.6-1,1.5-1.6,2.5c-0.7,1-1.5,2.9-2.6,5.5
		c-1.1,2.6-1.7,4.9-1.7,6.9c0,0.7-0.3,1-0.9,1c-0.7,0-1.1-0.6-1.2-1.8c0-2,0.2-4,0.6-5.8c-0.3-1.6-1.5-2.4-3.5-2.4
		c-3.8,0-7.1,2.9-10,8.6c-2.9,5.7-4.3,11.3-4.3,16.8c0,6.8,2.2,10.2,6.5,10.2c1.7,0,3.3-0.5,4.8-1.6c1.5-1.1,2.6-2.1,3.2-3.2l1-1.7
		C349.7,495.7,350.2,495.5,350.9,495.5z"/>
	<path fill="#98C6FE" d="M383.5,478.2c1.7-2.8,2.6-5.4,2.6-7.8c0-2.4-0.8-3.7-2.3-3.7c-1.8,0-3.9,1.6-6.3,4.8
		c-2.3,3.2-4.4,6.9-6.2,11c-1.8,4.1-3.4,7.9-4.6,11.4c-1.3,3.5-1.9,5.6-1.9,6.3c-0.1,0.6-0.4,0.9-1.1,0.9c-1.6,0-2.4-2.1-2.4-6.3
		c0-8.4,0.8-16.8,2.5-25.2c1.7-8.4,3.7-15.2,6-20.3c2.3-5.1,4.5-7.6,6.5-7.6c0.8,0,1.3,0.4,1.3,1.3c-2.8,6.1-5.2,13.6-7.3,22.5
		c-1.7,6.8-3.1,14.2-4.3,22h0.6c6-15.4,12-23.1,18-23.1c3.7,0,5.6,2.1,5.6,6.4c0,2.7-1,5.6-3,8.7c-2,3-4.6,5.1-7.7,6.1
		c0.6,0.6,1.9,4.2,3.9,10.8c0.7,2.4,1.6,4.5,2.8,6.5c1.2,1.9,2.5,2.9,3.9,2.9c1.4,0,2.4-0.5,3.1-1.5c0.3,0,0.5,0.1,0.5,0.4
		c0,0.3-0.1,0.7-0.4,1.2c-1.2,1.6-2.6,2.4-4.3,2.6c-2.2,0-4.2-1.1-6.1-3.3c-1.9-2.2-3.4-4.6-4.4-7.3c-1.1-2.6-2-5.2-3-7.8
		c-0.9-2.6-1.5-4.1-1.7-4.4c-0.4-0.3-0.6-0.6-0.7-0.9C377.4,484.8,380.8,482.6,383.5,478.2z"/>
</g>
<g>
	<path fill="#98C6FE" d="M226.2,525.8l-0.7,3.9h-5v17.8h-5.3v-17.8h-5.2v-3.9H226.2z"/>
	<path fill="#98C6FE" d="M231.5,525.8h13.8v3.9h-8.5v4.6h7.1l-0.6,3.8h-6.5v5.5h9v3.9h-14.2V525.8z"/>
	<path fill="#98C6FE" d="M264.2,525.8h5.3v21.7H265l-6.2-9.3c-0.1-0.2-0.3-0.5-0.5-0.8c-0.2-0.4-0.5-0.7-0.7-1.1
		c-0.2-0.4-0.5-0.8-0.7-1.2s-0.4-0.7-0.6-0.9c0,0.3,0,0.7,0.1,1.2c0,0.5,0.1,0.9,0.1,1.4c0,0.5,0.1,0.9,0.1,1.4c0,0.4,0,0.8,0,1.1
		l0.1,8.3h-5.3v-21.7h4.3l6.2,9.3c0.2,0.3,0.4,0.6,0.6,1c0.2,0.4,0.5,0.8,0.7,1.1s0.5,0.8,0.7,1.1c0.2,0.4,0.4,0.7,0.5,0.9
		c0-0.3,0-0.7-0.1-1.2c0-0.4,0-0.9-0.1-1.4c0-0.5-0.1-0.9-0.1-1.4c0-0.4,0-0.8,0-1.2L264.2,525.8z"/>
	<path fill="#98C6FE" d="M289.5,525.8h5.3v21.7h-4.5l-6.2-9.3c-0.1-0.2-0.3-0.5-0.5-0.8c-0.2-0.4-0.5-0.7-0.7-1.1
		c-0.2-0.4-0.5-0.8-0.7-1.2s-0.4-0.7-0.6-0.9c0,0.3,0,0.7,0.1,1.2c0,0.5,0.1,0.9,0.1,1.4c0,0.5,0.1,0.9,0.1,1.4c0,0.4,0,0.8,0,1.1
		l0.1,8.3h-5.3v-21.7h4.3l6.2,9.3c0.2,0.3,0.4,0.6,0.6,1c0.2,0.4,0.5,0.8,0.7,1.1s0.5,0.8,0.7,1.1c0.2,0.4,0.4,0.7,0.5,0.9
		c0-0.3,0-0.7-0.1-1.2c0-0.4,0-0.9-0.1-1.4c0-0.5-0.1-0.9-0.1-1.4c0-0.4,0-0.8,0-1.2L289.5,525.8z"/>
	<path fill="#98C6FE" d="M301.9,525.8h13.8v3.9h-8.5v4.6h7.1l-0.6,3.8h-6.5v5.5h9v3.9h-14.2V525.8z"/>
	<path fill="#98C6FE" d="M328.5,525.5c0.8,0,1.5,0.1,2.2,0.2s1.4,0.3,2,0.5c0.6,0.2,1.2,0.4,1.7,0.7c0.5,0.2,0.9,0.5,1.3,0.8
		l-1.9,3.5c-0.3-0.1-0.6-0.3-0.9-0.5c-0.4-0.2-0.8-0.4-1.2-0.6c-0.4-0.2-0.8-0.4-1.3-0.5s-0.9-0.2-1.3-0.2c-0.7,0-1.3,0.2-1.7,0.5
		c-0.4,0.3-0.5,0.7-0.5,1.2c0,0.4,0.1,0.7,0.3,1c0.1,0.3,0.4,0.5,0.7,0.8c0.3,0.3,0.7,0.5,1.2,0.8c0.5,0.3,1,0.5,1.7,0.8
		c0.9,0.4,1.6,0.7,2.2,1.1s1.2,0.8,1.6,1.3c0.4,0.5,0.7,1,0.9,1.7c0.2,0.6,0.3,1.3,0.3,2.1c0,1-0.2,1.9-0.5,2.8
		c-0.4,0.9-0.9,1.6-1.5,2.3c-0.7,0.6-1.5,1.1-2.4,1.5c-0.9,0.4-2,0.5-3.2,0.5c-0.8,0-1.6-0.1-2.4-0.2c-0.8-0.1-1.5-0.3-2.1-0.6
		c-0.6-0.2-1.2-0.5-1.8-0.8c-0.5-0.3-1-0.5-1.4-0.8l1.7-3.8c0.1,0.1,0.4,0.3,0.8,0.5c0.4,0.2,0.9,0.5,1.4,0.7s1,0.5,1.6,0.7
		c0.5,0.2,1,0.3,1.4,0.3c0.9,0,1.6-0.2,2-0.6s0.6-1,0.6-1.8c0-0.8-0.3-1.3-0.8-1.7c-0.5-0.4-1.3-0.8-2.2-1.2
		c-0.9-0.4-1.8-0.8-2.5-1.2c-0.7-0.4-1.3-0.9-1.8-1.4c-0.5-0.5-0.9-1.1-1.2-1.8c-0.3-0.7-0.4-1.4-0.4-2.3c0-1,0.2-1.8,0.6-2.6
		c0.4-0.8,0.9-1.4,1.6-2c0.7-0.5,1.4-1,2.3-1.2C326.6,525.7,327.5,525.5,328.5,525.5z"/>
	<path fill="#98C6FE" d="M348.5,525.5c0.8,0,1.5,0.1,2.2,0.2c0.7,0.1,1.4,0.3,2,0.5c0.6,0.2,1.2,0.4,1.7,0.7
		c0.5,0.2,0.9,0.5,1.3,0.8l-1.9,3.5c-0.3-0.1-0.6-0.3-0.9-0.5s-0.8-0.4-1.2-0.6c-0.4-0.2-0.8-0.4-1.3-0.5c-0.4-0.1-0.9-0.2-1.3-0.2
		c-0.7,0-1.3,0.2-1.7,0.5c-0.4,0.3-0.5,0.7-0.5,1.2c0,0.4,0.1,0.7,0.3,1s0.4,0.5,0.7,0.8c0.3,0.3,0.7,0.5,1.2,0.8
		c0.5,0.3,1,0.5,1.7,0.8c0.9,0.4,1.6,0.7,2.2,1.1c0.6,0.4,1.2,0.8,1.6,1.3c0.4,0.5,0.7,1,0.9,1.7c0.2,0.6,0.3,1.3,0.3,2.1
		c0,1-0.2,1.9-0.5,2.8c-0.4,0.9-0.9,1.6-1.5,2.3c-0.7,0.6-1.5,1.1-2.4,1.5c-0.9,0.4-2,0.5-3.2,0.5c-0.8,0-1.6-0.1-2.4-0.2
		c-0.8-0.1-1.5-0.3-2.1-0.6c-0.6-0.2-1.2-0.5-1.8-0.8c-0.5-0.3-1-0.5-1.4-0.8l1.7-3.8c0.1,0.1,0.4,0.3,0.8,0.5
		c0.4,0.2,0.9,0.5,1.4,0.7c0.5,0.2,1,0.5,1.6,0.7c0.5,0.2,1,0.3,1.4,0.3c0.9,0,1.6-0.2,2-0.6s0.6-1,0.6-1.8c0-0.8-0.3-1.3-0.8-1.7
		c-0.5-0.4-1.3-0.8-2.2-1.2c-0.9-0.4-1.8-0.8-2.5-1.2c-0.7-0.4-1.3-0.9-1.8-1.4c-0.5-0.5-0.9-1.1-1.2-1.8c-0.3-0.7-0.4-1.4-0.4-2.3
		c0-1,0.2-1.8,0.6-2.6c0.4-0.8,0.9-1.4,1.6-2c0.7-0.5,1.4-1,2.3-1.2C346.6,525.7,347.5,525.5,348.5,525.5z"/>
	<path fill="#98C6FE" d="M362,525.8h13.8v3.9h-8.5v4.6h7.1l-0.6,3.8h-6.5v5.5h9v3.9H362V525.8z"/>
	<path fill="#98C6FE" d="M381.9,525.8h13.8v3.9h-8.5v4.6h7.1l-0.6,3.8h-6.5v5.5h9v3.9h-14.2V525.8z"/>
</g>
</svg>
