<?xml version="1.0" encoding="utf-8"?>
<!-- Generator: Adobe Illustrator 17.1.0, SVG Export Plug-In . SVG Version: 6.00 Build 0)  -->
<!DOCTYPE svg PUBLIC "-//W3C//DTD SVG 1.1//EN" "http://www.w3.org/Graphics/SVG/1.1/DTD/svg11.dtd">
<svg version="1.1" id="Layer_1" xmlns="http://www.w3.org/2000/svg" xmlns:xlink="http://www.w3.org/1999/xlink" x="0px" y="0px"
	 viewBox="0 0 612 792" enable-background="new 0 0 612 792" xml:space="preserve">
<g>
	<path d="M295.1,400.8c-0.8-2-2.7-3.3-4.8-3.3c-0.6,0-1.1,0.1-1.8,0.3l-10.3,3.7c-1,0.4-1.8,1-2.4,1.9c-4.2-0.5-8-1.4-10.5-2
		l1.9,20.7c2.7,1,8.3,3.1,16.5,3.1c8.3,0,14-1.9,16.5-3.1l1.5-20.7c-1.6,0.5-3.8,1-6,1.4L295.1,400.8z M294.8,415.2l-10.3,3.7
		c-1.3,0.5-2.8-0.3-3.3-1.5l-3.7-10.3c-0.3-0.6-0.3-1.3,0.1-1.9c0.3-0.6,0.8-1.1,1.4-1.3l10.3-3.7c0.3-0.1,0.5-0.1,0.9-0.1
		c1,0,2,0.6,2.4,1.7l3.7,10.3C296.8,413.3,296.2,414.7,294.8,415.2z"/>
	<path d="M351.2,416.3l-17.2-10l5.8-41.4c0-5.9-9.6-10.8-21.5-10.8c-11.9,0-21.5,4.8-21.5,10.8l2.7,19.2c-4.7-1.1-10.6-1.6-15.8-1.6
		c-10.6,0-24.3,2.2-24.3,6.7l2.8,39.3c0,4.5,14,6.7,21.6,6.7c5.7,0,15.2-1.3,19.4-3.9l11.1,6.4c1.1,0.7,2.6,1,4.1,1s3-0.3,4.1-1
		l28.8-16.7C353.4,419.8,353.4,417.6,351.2,416.3z M333.6,374.2c-1,3.5-7.5,6.2-15.4,6.2s-14.4-2.7-15.4-6.2l-0.7-4.8
		c3.4,2.3,9.3,3.8,16.1,3.8s12.7-1.5,16.1-3.8L333.6,374.2z M318.2,358.9c10.2,0,16.7,3.5,16.7,6c0,2.4-6.5,6-16.7,6
		s-16.7-3.5-16.7-6C301.5,362.5,308,358.9,318.2,358.9z M283.5,385.8c7.1,0,18.5,0.7,19.8,4.2c-2.1,1.5-12.6,3.3-19.7,3.3
		s-17.7-2.3-19.8-3.8C264.8,387,276.4,385.8,283.5,385.8z M264.6,423.4l-2.5-31.5c5.7,3.1,18.8,3.7,21.1,3.7
		c2.3,0,16.4-0.3,22.1-3.3l-2.5,31.1c-0.8,1.3-12.3,4.1-19.1,4.1C276.9,427.5,265.3,424.7,264.6,423.4z M320,433.7
		c-0.2,0.1-0.8,0.3-1.7,0.3c-0.9,0-1.5-0.2-1.7-0.3l-11.2-6.5l0.5-6.6c2.4,3.1,6.9,5.3,12.5,5.3c7.9,0,13.7-4.3,14.3-9.6l0.7-4.9
		l12.5,7.3L320,433.7z"/>
</g>
</svg>
