<?xml version="1.0" encoding="utf-8"?>
<!-- Generator: Adobe Illustrator 17.1.0, SVG Export Plug-In . SVG Version: 6.00 Build 0)  -->
<!DOCTYPE svg PUBLIC "-//W3C//DTD SVG 1.1//EN" "http://www.w3.org/Graphics/SVG/1.1/DTD/svg11.dtd">
<svg version="1.1" id="Layer_1" xmlns="http://www.w3.org/2000/svg" xmlns:xlink="http://www.w3.org/1999/xlink" x="0px" y="0px"
	 viewBox="0 0 612 792" enable-background="new 0 0 612 792" xml:space="preserve">
<g>
	<path d="M371.3,414.1c2.6,11.6-17.9,19-44.2,25.3c-26.2,6.3-48.1,9-50.8-2.5c-1.4-5.8,2.2-13.4,10.5-18.2c7.8-4.9,21.1,0,28,6.4
		c-0.4-1-0.3-1.8-1.2-3.2c-3.8-5.7-8-7.5-13.9-8.8c3.3-3.7,8-6.1,11.7-7.5c5.1-1.9,12.4-2.8,19.2-0.4c6.1,2.1,12,6.9,14.7,13.2
		c0.2-1.2,0-2.8-0.3-3.8c-1.6-5.3-3.6-8.4-8.1-11.4C350,398.3,369.2,404.8,371.3,414.1z M292.7,441.8c7.8,0,18.5-1.7,33.7-5.4
		c11-2.6,44.4-10.7,41.9-21.7c-1.2-5.4-11.5-10.2-21.7-10.2c-1.2,0-2.3,0.1-3.4,0.2c2.1,2.4,3.5,5.2,4.6,9c0.4,1.3,0.7,3.4,0.4,5.2
		c-0.2,1.3-1.3,2.3-2.6,2.5c-0.1,0-0.2,0-0.4,0c-1.2,0-2.3-0.7-2.7-1.8c-2.2-5.1-7.2-9.5-13-11.5c-2.4-0.8-5.1-1.3-7.9-1.3
		c-3.2,0-6.5,0.6-9.3,1.6c-1.3,0.5-4,1.6-6.6,3.4c4,1.6,7.3,4,10.3,8.5c0.9,1.3,1.1,2.4,1.3,3.1c0.1,0.2,0.1,0.4,0.2,0.5
		c0.6,1.3,0.2,2.8-1,3.7c-0.5,0.4-1.1,0.6-1.8,0.6c-0.7,0-1.5-0.3-2-0.8c-4.7-4.4-12.4-7.6-18.2-7.6c-2.4,0-4.5,0.5-6.1,1.5
		c0,0-0.1,0-0.1,0.1c-7.6,4.4-10.1,10.8-9.1,14.9C279.5,437.6,280.5,441.8,292.7,441.8C292.7,441.8,292.7,441.8,292.7,441.8z"/>
	<g>
		<path d="M304.4,387.9c-3.3-1.2-6.8-1.5-10-1.4c0.9-3.4,1.7-6.7,2.2-8.7c0.1-0.3,0.3-1,0.7-2.8c0.1-0.4,0.1-0.9-0.1-1.3l-0.3-0.8
			c-0.9-2-2-4-3.4-5.8c0-0.3,0-0.6,0-0.9c0-2-0.6-4.9-3.5-7.6c-0.5-2.2-1.9-4.9-5.7-7.3c-1.3-2.9-4.1-4.6-5.7-5.4
			c-3-1.4-6.9-2.2-11-2.2c-4.1,0-8,0.8-11,2.2c-3.7,1.8-5.3,4.1-6,5.9c-2.8,1.9-4.4,4.3-4.9,7c-2.6,2.7-3.2,5.5-3.2,7.4
			c0,0.5,0,1.1,0.1,1.6c-1.1,1.6-2.1,3.3-2.9,5l-0.3,0.8c-0.2,0.4-0.2,0.9-0.1,1.3c0.6,2.1,0.8,2.8,0.9,3.2c1.5,5.3,4.2,15,5.5,19.5
			c1.1,3.8,4,7,8.2,9.2c-3.5,4.1-4.8,8.8-3.9,12.7c1.7,7.1,10.7,8.8,23.5,7.5c2-4.5,5.9-8.7,11.1-11.8c2.7-1.7,6-2.5,9.7-2.5
			c0,0,0.1,0,0.1,0l2.1-2.3c4.2-4.7,10.1-7.4,13.2-8.6c2.6-1,5.6-1.7,8.7-1.9C315.7,394.3,310.2,389.9,304.4,387.9z M250.5,361.6
			L250.5,361.6l0.9-0.6l-0.5-0.7c0.1-1.8,1.6-3.6,4.4-5l0.5-0.3l-0.3-0.6c0.1-2.9,5.7-5.4,12.2-5.4c6.6,0,12.2,2.5,12.2,5.5
			c0,2-1.7,3.9-4.9,5.4c-3.3,1.5-10.5,2.4-12.3,2.5s-1.6,2.2,0.1,2.1s9.9-0.7,13.3-2.3c3.1-1.5,5.3-4.2,5.7-6.3
			c2.7,1.4,2.8,2.6,2.8,4.5c0,2.4-1.7,4.8-5.4,6.5c-3.9,1.8-12.6,3-14.5,3c-1.9,0-2.1,1.8-0.1,2.1s11.4-1,15.4-2.9
			c3.4-1.6,5.7-4.1,6.4-6.4c1.6,1.3,1.9,2,1.9,3.6c0,2.4-2.1,4.7-5.8,6.5c-3.9,1.8-9,2.8-14.5,2.8c-5.5,0-10.6-1-14.5-2.8
			c-3.7-1.8-5.8-4.1-5.8-6.5C247.7,364.6,248.7,363,250.5,361.6z M283.5,401.8c1,1.3,1.3,2.7,1.5,3.3c-6.8-4.4-16.6-8.5-24.4-3.6
			c-0.9,0.5-1.7,1.1-2.5,1.6c-4.2-1.7-6.7-4.2-7.4-6.8c-1.1-3.9-3.8-13.6-3.8-13.6c0.8,0.8,3.6,1.2,6,1.1c1.9-0.1,5.1-0.3,4.7-1.4
			c-0.4-1.1-11.2-3.1-12.8-6.8l-0.2-0.8c0.7-1.5,1.5-3,2.5-4.3c1.3,2.2,3.7,4.5,8.3,6.5c5,2.1,11.5,3.2,18.4,3.2
			c4.1,0,7.8-0.8,10.8-2c3-1.2,5.3-2.8,6-2.2c0.9,0.8,0.1,3.4-0.5,5.6c-0.3,1-0.8,3.2-1.4,5.7c-1.3,0.3-2.5,0.7-3.6,1.1
			c-3.7,1.4-8.4,3.9-11.7,7.5C279.4,397.1,280.4,397.6,283.5,401.8z"/>
		<path d="M345.1,396.8c-2.1-9.3-21.3-15.7-34.5-11c4.5,3,6.6,6.1,8.1,11.4c0.2,0.7,0.4,1.8,0.4,2.7c0.8-0.1,1.6-0.1,2.5-0.1
			c3.2,0,6.2,0.4,9.1,1.3l4.8-1.7c3-1.1,6.3-1.6,9.8-1.8C345.2,397.3,345.2,397.1,345.1,396.8z"/>
	</g>
</g>
</svg>
