<?xml version="1.0" encoding="utf-8"?>
<!-- Generator: Adobe Illustrator 17.1.0, SVG Export Plug-In . SVG Version: 6.00 Build 0)  -->
<!DOCTYPE svg PUBLIC "-//W3C//DTD SVG 1.1//EN" "http://www.w3.org/Graphics/SVG/1.1/DTD/svg11.dtd">
<svg version="1.1" id="Layer_1" xmlns="http://www.w3.org/2000/svg" xmlns:xlink="http://www.w3.org/1999/xlink" x="0px" y="0px"
	 viewBox="0 0 612 792" enable-background="new 0 0 612 792" xml:space="preserve">
<path d="M274.6,416c-4.2-0.3-8.4-1.2-15-5.4c-3.9-2.5-6.9-6.4-4.3-7.2c4.4-1.3,9,4.9,11.5,3.9c2.5-1,10-8.9,12.7-6.5
	c2.7,2.4-8.8,9.5-5.4,10.4C279.8,412.6,279.1,416.3,274.6,416z M369.2,401.2c-1.6,1.8-3.2,3.3-5,4.7c-4.3,3.4-8.2,5.1-12.1,6.7
	c-3.6,1.5-6.9,2.9-10.5,5.7c-1.4,1.1-2.8,2.4-4.2,4c-1.6,1.8-3.2,3.3-5,4.7c-4.3,3.4-8.2,5.1-12.1,6.7c-3.6,1.5-6.9,2.9-10.5,5.7
	c-1.4,1.1-2.8,2.4-4.2,4c-0.1,0.1-0.3,0.3-0.4,0.4c-0.7,0.5-1.5,0.8-2.4,0.7c-1-0.1-2-0.6-2.6-1.5l-6.8-10.2
	c-0.7,1.2-1.5,2.5-2.5,3.6c-3.2,3.7-7.7,5.5-13.5,5.7c-0.2,0-0.4,0-0.6,0c-5.7,0-12.8-2.4-19.6-6.7c-6.4-4.1-11.6-9.2-13.7-13.8
	c-1.3-2.9-1.9-8.6-2-12.6c-0.1-3.9,0.2-8.9,1.7-12.2c0.1-0.2,0.2-0.4,0.2-0.7c3.3-8,12.6-15.4,25-19.8c6.7-2.4,13.8-3.9,20.5-4.3
	c1-1.6,2.4-3.1,4.1-4.4c2.2-1.7,4.9-3,7.8-3.8c0.7-3.3,2-6.4,3.8-8.9c3.1-4.2,7.4-6.5,12-6.5c4.6,0,8.9,2.4,12,6.5
	c1.5,2,2.6,4.3,3.3,6.8l0,0c0,0,0,0,0,0c1.3-0.2,2.6-0.4,3.9-0.4c2.3,0,4.6,0.4,6.9,1.1c4.7,1.6,8.7,4.6,11.1,8.6
	c1.7,2.8,2.6,5.9,2.5,8.9c0.9,0.1,1.7,0.5,2.3,1.2c0.1,0.1,0.2,0.2,0.2,0.3l2.5,3.8l7.8,11.7C370.3,398.4,370.2,400.1,369.2,401.2z
	 M328.6,367.8C328.6,367.8,328.6,367.8,328.6,367.8c-1.1,0.7-2.1,1.5-2.9,2.4c-0.9,1-1.6,2.2-2,3.5c-0.1,0.3-0.2,0.6-0.3,0.9
	c-0.2,0.8-0.3,1.7-0.3,2.6c0,1.4,0.3,2.8,0.9,4.2c0,0.1,0,0.1,0.1,0.2c0.6,1.4,1.4,2.7,2.5,3.9c0,0,0,0,0,0c0,0,0,0,0,0
	c0.1,0.1,0.2,0.3,0.4,0.4c0,0,0,0,0,0c1.8,1.8,4.1,3.3,6.8,4.2c1.7,0.6,3.4,0.9,5.1,0.9c0.1,0,0.2-0.1,0.3-0.1
	c3.6-1.5,6.9-2.9,10.5-5.7c0.6-0.5,1.2-1,1.8-1.5c0.1-0.2,0.1-0.3,0.2-0.5c2.2-6.4-2.3-13.8-10.1-16.3c-1.8-0.6-3.7-0.9-5.5-0.9
	c-1,0-2.1,0.1-3.1,0.3C331.4,366.5,330,367,328.6,367.8L328.6,367.8z M324.1,389.4C324.1,389.4,324.1,389.4,324.1,389.4
	c-0.5,0.4-0.9,0.8-1.4,1.2c-1.7,1.3-3.7,2.4-5.9,3.2c0,3.9-0.5,7.6-1.2,9.6c-1,3-3.2,5.3-5.7,7.4c2.7-1.2,5.3-2.5,8.1-4.7
	c1.4-1.1,2.8-2.4,4.2-4c1.6-1.8,3.3-3.3,5-4.7c1.7-1.3,3.3-2.4,4.9-3.3C329,393.2,326.3,391.5,324.1,389.4z M305.9,362.9
	c0.5,0,1-0.1,1.5-0.1c0.3,0,0.7,0.1,1,0.1c5.4,0,10.3,1.6,14,4.2c0,0,0,0,0,0c1.5-1.7,3.3-3.1,5.5-4c0,0,0,0,0,0c0,0,0,0,0,0
	c0,0,0,0,0,0c-1.7-6-6-10.2-11-10.2C311.9,352.9,307.7,357,305.9,362.9z M295.1,372c10.3,0.4,17.5,3.9,20,9.5c0,0.1,0.1,0.1,0.1,0.2
	c0,0,0,0.1,0,0.1c0.3,0.8,0.6,1.6,0.7,2.4c0.3,1.4,0.6,3.1,0.7,4.8c1.8-0.8,3.4-1.9,4.6-3.2c0-0.1-0.1-0.1-0.1-0.2
	c-0.3-0.5-0.6-1-0.8-1.4c0,0,0,0,0,0c-1.9-3.9-2.3-8-1-11.9c0.2-0.5,0.4-1,0.6-1.5c0,0,0,0,0,0c-2.9-2.2-7.1-3.6-11.6-3.6
	c-0.3,0-0.5,0-0.8,0c-0.8,0-1.7,0.1-2.5,0.2c-1.6,0.2-3.1,0.6-4.5,1.2C298.4,369.4,296.6,370.6,295.1,372z M291.3,410.6
	c0.8-3.1,2.2-6,4.1-8.5c2-2.5,4.8-4.6,7.4-6.5c6.3-4.6,8.9-7.1,7-11.7c-1.6-3.8-8.1-6.2-17-6.2c-7,0-14.8,1.4-22.1,4.1
	c-10.7,3.8-19,10.2-21.6,16.6c-1.1,2.6-1.1,5.1-0.1,7.3c1.7,3.6,6.1,7.9,11.6,11.4c5.8,3.7,11.8,5.8,16.5,5.8c0.1,0,0.3,0,0.5,0
	C287.3,422.7,289.6,417.1,291.3,410.6z M310.8,417.4c5-2.1,9.8-4.1,15.2-10.1c6-6.6,11.3-8.8,16.4-11c5-2.1,9.8-4.1,15.2-10.1
	c0.1-0.1,0.2-0.2,0.3-0.3c-0.5-0.8-1.1-1.6-1.7-2.5c-1.6,1.7-3.1,3.2-4.6,4.3c-7.8,6.3-14.7,6.1-22.5,12.4c-1.5,1.2-3,2.6-4.6,4.3
	c-1.6,1.7-3.1,3.2-4.6,4.3c-7.8,6.3-14.7,6.1-22.5,12.4c-1.5,1.2-3,2.6-4.6,4.3c0.6,0.9,1.1,1.7,1.7,2.5
	C300.4,421.7,305.7,419.5,310.8,417.4z M315.9,425.1c5-2.1,9.8-4.1,15.2-10.1c0,0,0,0,0,0c6-6.6,11.3-8.8,16.4-11
	c5-2.1,9.8-4.1,15.2-10.1c0.1-0.1,0.2-0.2,0.3-0.3c-0.5-0.8-1-1.5-1.5-2.3c-1.5,1.7-3,3.1-4.5,4.2c-4.1,3.3-7.9,4.9-11.7,6.4
	c-5,2.1-9.8,4.1-15.2,10.1c0,0,0,0,0,0c-1.6,1.8-3.2,3.3-4.8,4.5c-4.1,3.3-7.9,4.9-11.7,6.4c-5,2.1-9.8,4.1-15.2,10.1
	c-0.1,0.1-0.2,0.2-0.3,0.3c0.5,0.7,1,1.5,1.5,2.3C305.6,429.4,310.8,427.2,315.9,425.1z M366.7,399c-0.6-0.9-1.1-1.7-1.6-2.5
	c-1.5,1.7-3,3.1-4.5,4.2c-4.1,3.3-7.9,4.9-11.7,6.4c-5,2.1-9.8,4.1-15.2,10.1c0,0,0,0,0,0c-1.6,1.8-3.2,3.3-4.8,4.5
	c-4.1,3.3-7.9,4.9-11.7,6.4c-5,2.1-9.8,4.1-15.2,10.1c-0.1,0.1-0.2,0.2-0.3,0.3c0.5,0.8,1.1,1.6,1.7,2.5c1.6-1.7,3.1-3.2,4.6-4.3
	c7.8-6.3,14.7-6.1,22.5-12.4c1.5-1.2,3-2.6,4.6-4.3c1.6-1.7,3.1-3.2,4.6-4.3c7.8-6.3,14.7-6.1,22.5-12.4
	C363.6,402.1,365.1,400.7,366.7,399z"/>
</svg>
