<?xml version="1.0" encoding="utf-8"?>
<!-- Generator: Adobe Illustrator 17.1.0, SVG Export Plug-In . SVG Version: 6.00 Build 0)  -->
<!DOCTYPE svg PUBLIC "-//W3C//DTD SVG 1.1//EN" "http://www.w3.org/Graphics/SVG/1.1/DTD/svg11.dtd">
<svg version="1.1" id="Layer_1" xmlns="http://www.w3.org/2000/svg" xmlns:xlink="http://www.w3.org/1999/xlink" x="0px" y="0px"
	 viewBox="0 0 612 792" enable-background="new 0 0 612 792" xml:space="preserve">
<path d="M366.1,413.2c-1.5,0-2.7-1.2-2.7-2.7c0-1.5,1.2-2.7,2.7-2.7c1.5,0,2.7,1.2,2.7,2.7S367.6,413.2,366.1,413.2z M361.4,422.6
	c-1.8,0-3.3-1.5-3.3-3.3c0-1.8,1.5-3.3,3.3-3.3c1.8,0,3.3,1.5,3.3,3.3C364.7,421.1,363.2,422.6,361.4,422.6z M355.8,429
	c-1.9,0-3.4-1.5-3.4-3.4c0-1.9,1.5-3.4,3.4-3.4c1.9,0,3.4,1.5,3.4,3.4C359.2,427.5,357.6,429,355.8,429z M349.7,433.3
	c-1.5,0-2.7-1.2-2.7-2.7c0-1.5,1.2-2.7,2.7-2.7c1.5,0,2.7,1.2,2.7,2.7C352.4,432.1,351.2,433.3,349.7,433.3z M342.4,436.7
	c-1.5,0-2.7-1.2-2.7-2.7c0-1.5,1.2-2.7,2.7-2.7c1.5,0,2.7,1.2,2.7,2.7C345.1,435.5,343.9,436.7,342.4,436.7z M371.5,403.4
	c0-1.5-1.9-11.4-9.7,3.6c-7.8,15-23.6,24-29.2,27.9c-5.6,3.9-1.4,4.9-1.4,4.9C372.7,439.7,371.5,403.4,371.5,403.4z M342.9,396.4
	c-1.3,0.8,0.3,1.6,0.5,2.1c1,1.7,0.8,3.1-0.6,4.4c-1.4,1.3-2.8,2.1-4.8,1c-3.5-1.9-6.9-3-10.4,0.4c-1.6,1.5-4.1,1.4-5.9-0.1
	c-1.7-1.5-2.6-3.4-1.1-5.7c0.3-0.5,0.1-1.2-0.8-1.2c-0.8,0-1.4-0.4-2.1-0.7c-0.8-0.4-1.7-0.4-2.3,0.6c-3.5,5.4-4.9,11.1-2.6,17.3
	c2.9,7.7,9.7,12.5,18.2,12.6c1.9,0.4,4-0.4,5.9-1.2c6.4-2.6,10.4-7.1,12-14.1c1.2-5.4-0.4-9.8-3-14.2
	C345.3,396.3,344.1,395.6,342.9,396.4z M323.4,416c-2.4-0.1-5.5-2.2-5.4-4.5c0.1-2.2,1.8-3.6,4.6-3.6c2.7,0,5.3,2,5.4,4.1
	C328,413.9,325.6,416.1,323.4,416z M337.7,396.5c0.7,0.6,1.4,1.3,1.9,2c0.5,0.6,1.5,1.2,0.8,2c-0.5,0.6-1.6,0.3-2.3-0.1
	c-1.1-0.6-2.3-1-3.3-1.7c-2.2-1.5-3.9-0.7-5.6,0.6c-1,0.7-2,1.5-3.1,2.1c-0.8,0.4-1.9,0.6-2.5-0.2c-0.4-0.6-0.2-1.6,0.4-2.4
	c2.5-3.2,2.4-3.3-1.4-4.2c-1.2-0.3-2.2-0.8-3.4-1c-0.6-0.1-1.1-0.3-1.2-1c-0.1-0.9,0.7-1.2,1.2-1.4c0.7-0.2,1.7-0.3,2.4,0
	c1.7,0.8,3.4,0.4,5.1,0.7c2.1,0.3,2.8-0.8,3-2.6c0.1-0.5,0-1.1,0.3-1.5c0.3-0.5,0.4-1.3,1.3-1.3c0.9-0.1,1,0.7,1.3,1.2
	c0.5,0.7,0.6,1.5,0.8,2.3c0.7,2.9,1.2,3.1,4,2.3c2.2-0.6,4.4-0.3,6.5-0.4c0,0.2,0,0.4,0.1,0.6c-2,0.7-4,1.4-6,2.1
	C336.6,394.9,336.4,395.5,337.7,396.5z M304,418c1.6-0.5,3.1-1.1,4.7-1.8c0.8-0.4,1.3-0.8,1-1.9c-1.3-5-1.2-9.9,0.8-14.8
	c1.2-3,3.7-5.2,4.6-8.4c0.6-2.2,2.4-3.2,4.8-3c1.7,0.1,3.5,0.1,5.2,0.2c1.2,0.1,1.8-0.2,2.1-1.6c0.5-2.9,3.4-4.2,6.2-3.1
	c2,0.8,2.3,2.8,3.2,4.6c1.8-1.7,2.8-3.8,4.1-5.5c1.4-1.8,1.5-4.6,4.3-5.2c3.4-0.7,5.1-5.9,4.4-8.4c-0.6-2-1.2-4-2.6-5.5
	c-1-1.1-0.7-1.8,0.1-2.8c1-1.4,2-2.9,1.9-4.8c-0.2-2.7-2.3-4.2-5.6-3.8c-2.1,0.3-3.4,2.4-2.9,4.7c0.3,1.6-0.4,1.9-1.7,1.8
	c-3.1-0.3-6,0-8.8,1.7c-3.2,1.9-4.7,5.3-3.7,8.6c0.4,1.4-0.4,1.8-1.5,2.2c-3.7,1.3-7.5,2.1-11.3,2.9c-5.5,1.1-11.1,1.8-16.7,2.4
	c-5.7,0.6-10.8,2.3-15.1,6.2c-1,0.9-1.9,1.9-2.7,3c-3.7-1.1-7.9-0.4-11.2,2.3c-0.1-0.6-0.4-1.2-0.9-1.7c-0.6-0.6-1.4-0.9-2.2-1
	c-0.2-0.8-0.6-1.6-1.2-2.3c-0.9-0.9-2.1-1.3-3.3-1.3c-0.1-1.7-0.7-3.3-2-4.6c-2.5-2.5-6.3-2.6-9-0.6c-0.2-0.3-0.4-0.6-0.7-0.9
	c-1.7-1.7-4.5-1.7-6.2,0c-1.7,1.7-1.7,4.5,0,6.2c0.5,0.5,1.1,0.8,1.7,1c-0.6,1.6-0.2,3.4,1,4.6c1.5,1.5,3.8,1.7,5.4,0.6
	c1.9,0.9,4.1,0.8,6-0.1c0.2,0.4,0.5,0.8,0.8,1.1c1.2,1.2,2.9,1.5,4.4,1.1c0.1,0.2,0.3,0.5,0.5,0.7c0.5,0.5,1.1,0.8,1.7,0.9
	c-4.1,5-3.9,11.9,0.7,16.5c0.6,0.6,1.3,1.2,2.1,1.7l40.5,27.6c2.7,1.8,6,3.7,8,1.7c2-2,0.1-5.3-1.7-8L304,418z M344.4,354.8
	c0.8,0.2,1.3,0.9,1.1,1.5c-0.4,1.1-0.5,2.4-2.3,3.1c0-1.3,0-2.4,0-3.5C343.2,355.1,343.6,354.7,344.4,354.8z M329.5,364.6
	c3.8-4.9,12.5-3.7,15.6,1.9c1,1.8,1,2,1,4c0,0.4,0,0.8,0,1.1c-0.1,1.7-0.8,2.8-2.6,3.1c-2,0.3-2.5-1.1-2.8-2.4
	c-0.3-1.5-0.8-1.5-1.9-0.8c-1.9,1.1-2.9,0.7-3.9-1.3c-0.4-1-0.6-2.6-2.5-1.1c-0.9,0.7-2.6,0.8-3.3-0.3
	C328.4,367.5,328.4,366,329.5,364.6z M294.9,381.6c2.1-0.5,4.1-0.5,6.2-0.8c5.6-0.6,11.3-0.6,16.7-2.5c1-0.3,1.5,0.2,1.8,0.8
	c0.4,0.9-0.6,1.3-1.1,1.5c-2.1,0.8-4.2,1.5-6.3,1.9c-5.2,1-10.4,1.6-15.5,2.9c-4.1,1-7.6,4.3-8.8,8.6l-2.3-3.4
	c-0.4-0.6-0.8-1.1-1.3-1.6C286.8,385.4,290.6,382.6,294.9,381.6z M309.2,434.1l-40.5-27.6c-0.5-0.4-1-0.8-1.5-1.2
	c-3.3-3.3-3.2-8.2,0.2-11.6l1.7-1.7c3.4-3.4,8.3-3.5,11.6-0.2c0.4,0.4,0.8,0.9,1.2,1.5l2.8,4.1c-0.8,0.4-1.5,1-2.2,1.6l-1.8,1.6
	c-1.5,1.3-2.7,2.9-3.4,4.6c-0.2,0.4-0.1,0.9,0.2,1.2c0.1,0.1,0.2,0.2,0.3,0.2c0.5,0.2,1.2,0,1.4-0.6c0.6-1.4,1.5-2.7,2.8-3.8
	l1.8-1.6c0.7-0.6,1.3-1,2.1-1.4l4.7,7l-1.2,1.1c-1.5,1.3-2.7,2.9-3.4,4.6c-0.2,0.4-0.1,0.9,0.2,1.2c0.1,0.1,0.2,0.2,0.3,0.2
	c0.5,0.2,1.2,0,1.4-0.6c0.6-1.4,1.5-2.7,2.8-3.8l1-0.9l5,7.3c-1,1.1-1.7,2.2-2.3,3.5c-0.2,0.4-0.1,0.9,0.2,1.2
	c0.1,0.1,0.2,0.2,0.3,0.2c0.5,0.2,1.2,0,1.4-0.6c0.4-0.9,0.9-1.7,1.5-2.5l11.4,16.8c0.3,0.4,0.5,0.7,0.7,1.1
	C310,434.6,309.6,434.4,309.2,434.1z"/>
</svg>
