<?xml version="1.0" encoding="UTF-8" standalone="no"?>
<svg width="58px" height="88px" viewBox="0 0 58 88" version="1.1" xmlns="http://www.w3.org/2000/svg" xmlns:xlink="http://www.w3.org/1999/xlink" xmlns:sketch="http://www.bohemiancoding.com/sketch/ns">
    <!-- Generator: Sketch 3.3.1 (12005) - http://www.bohemiancoding.com/sketch -->
    <title>Built-at-White</title>
    <desc>Created with Sketch.</desc>
    <defs>
        <path id="path-1" d="M0.0102352941,0.0910520231 L57.8382824,0.0910520231 L57.8382824,88 L0.0102352941,88 L0.0102352941,0.0910520231 Z"></path>
    </defs>
    <g id="Page-1" stroke="none" stroke-width="1" fill="none" fill-rule="evenodd" sketch:type="MSPage">
        <g id="Home" sketch:type="MSArtboardGroup" transform="translate(-483.000000, -681.000000)">
            <g id="Footer-Section" sketch:type="MSLayerGroup" transform="translate(0.000000, 674.000000)" fill="#264D7E">
                <rect id="Rectangle-9" sketch:type="MSShapeGroup" x="0" y="0" width="1024" height="100"></rect>
            </g>
            <g id="Built-at-White" sketch:type="MSLayerGroup" transform="translate(483.000000, 681.000000)">
                <mask id="mask-2" sketch:name="Clip 2" fill="white">
                    <use xlink:href="#path-1"></use>
                </mask>
                <g id="Clip-2"></g>
                <path d="M52.9480294,26.2028054 L52.9480294,25.524578 L50.9009706,25.524578 L50.9009706,29.0852717 L52.9480294,29.0852717 L52.9480294,28.4070443 L51.5833235,28.4070443 L51.5833235,27.5592601 L52.7774412,27.5592601 L52.7774412,26.8810328 L51.5833235,26.8810328 L51.5833235,26.2028054 L52.9480294,26.2028054 L52.9480294,26.2028054 Z M48.1715588,26.2028054 L48.1715588,25.524578 L46.1245,25.524578 L46.1245,29.0852717 L48.1715588,29.0852717 L48.1715588,28.4070443 L46.8068529,28.4070443 L46.8068529,27.5592601 L48.0009706,27.5592601 L48.0009706,26.8810328 L46.8068529,26.8810328 L46.8068529,26.2028054 L48.1715588,26.2028054 L48.1715588,26.2028054 Z M42.1057824,28.4804624 C41.8011118,28.4804624 41.5865118,28.3610944 41.3415471,28.2668208 L41.2968529,28.9418266 C41.4466294,28.9865896 41.8104941,29.0856108 42.2352588,29.0856108 C42.9295529,29.0856108 43.4537706,28.6890173 43.4537706,28.0338497 C43.4537706,26.8028671 42.0807059,27.0958613 42.0807059,26.4659576 C42.0807059,26.2073834 42.2808059,26.088185 42.5450471,26.088185 C42.7639118,26.088185 43.0390706,26.1677071 43.2333706,26.267237 L43.2686824,25.6219037 C42.9691294,25.5574721 42.7695412,25.5027052 42.4496882,25.5027052 C41.2813294,25.5027052 41.2415824,26.3860963 41.2415824,26.4902042 C41.2415824,27.7259345 42.6156706,27.3985202 42.6156706,28.0684393 C42.6156706,28.3510906 42.3655882,28.4804624 42.1057824,28.4804624 L42.1057824,28.4804624 Z M37.3317,28.4804624 C37.0270294,28.4804624 36.8122588,28.3610944 36.5676353,28.2668208 L36.5231118,28.9418266 C36.6722059,28.9865896 37.0365824,29.0856108 37.4613471,29.0856108 C38.1549588,29.0856108 38.6800294,28.6890173 38.6800294,28.0338497 C38.6800294,26.8028671 37.3073059,27.0958613 37.3073059,26.4659576 C37.3073059,26.2073834 37.5058706,26.088185 37.7702824,26.088185 C37.9906824,26.088185 38.2646471,26.1677071 38.4596294,26.267237 L38.4946,25.6219037 C38.1952176,25.5574721 37.9954588,25.5027052 37.6757765,25.5027052 C36.5079294,25.5027052 36.4675,26.3860963 36.4675,26.4902042 C36.4675,27.7259345 37.8409059,27.3985202 37.8409059,28.0684393 C37.8409059,28.3510906 37.5909941,28.4804624 37.3317,28.4804624 L37.3317,28.4804624 Z M33.8421471,26.2028054 L33.8421471,25.524578 L31.7950882,25.524578 L31.7950882,29.0852717 L33.8421471,29.0852717 L33.8421471,28.4070443 L32.4774412,28.4070443 L32.4774412,27.5592601 L33.6715588,27.5592601 L33.6715588,26.8810328 L32.4774412,26.8810328 L32.4774412,26.2028054 L33.8421471,26.2028054 L33.8421471,26.2028054 Z M28.6479059,27.8983738 L27.6346118,25.524578 L26.6774412,25.524578 L26.6774412,29.0852717 L27.3597941,29.0852717 L27.3597941,26.5419191 L27.4046588,26.5419191 L28.4085706,29.0852717 L29.4068529,29.0852717 L29.4068529,25.524578 L28.7245,25.524578 L28.7245,27.8983738 L28.6479059,27.8983738 L28.6479059,27.8983738 Z M21.9009706,29.0852717 L22.5833235,29.0852717 L22.5833235,26.5419191 L22.6295529,26.5419191 L23.6332941,29.0852717 L24.6303824,29.0852717 L24.6303824,25.524578 L23.9480294,25.524578 L23.9480294,27.8983738 L23.8731412,27.8983738 L22.8591647,25.524578 L21.9009706,25.524578 L21.9009706,29.0852717 L21.9009706,29.0852717 Z M19.5127353,26.2028054 L19.5127353,25.524578 L17.4656765,25.524578 L17.4656765,29.0852717 L19.5127353,29.0852717 L19.5127353,28.4070443 L18.1480294,28.4070443 L18.1480294,27.5592601 L19.3421471,27.5592601 L19.3421471,26.8810328 L18.1480294,26.8810328 L18.1480294,26.2028054 L19.5127353,26.2028054 L19.5127353,26.2028054 Z M14.0539118,29.0852717 L14.0539118,26.2028054 L14.9068529,26.2028054 L14.9068529,25.524578 L12.5186176,25.524578 L12.5186176,26.2028054 L13.3715588,26.2028054 L13.3715588,29.0852717 L14.0539118,29.0852717 L14.0539118,29.0852717 Z M52.9480294,14.971869 L46.4656765,17.5197996 L46.4656765,19.2102813 L52.9480294,21.7585511 L52.9480294,19.5393911 L48.7776588,18.3416416 L52.9480294,17.1910289 L52.9480294,14.971869 L52.9480294,14.971869 Z M43.5656765,23.6594528 L45.6127353,23.6594528 L45.6127353,12.807815 L43.5656765,12.807815 L43.5656765,23.6594528 Z M41.3209059,23.8290096 C41.3209059,23.8290096 39.5727176,21.2134258 39.5727176,18.1488555 C39.5727176,15.0139191 41.3209059,12.4687013 41.3209059,12.4687013 L39.4191882,12.4687013 C39.4191882,12.4687013 37.3388647,14.8262197 37.3388647,18.1488555 C37.3388647,21.4597919 39.3949647,23.8290096 39.3949647,23.8290096 L41.3209059,23.8290096 L41.3209059,23.8290096 Z M35.8044235,22.4725549 L33.3235588,13.9947129 L31.4813765,13.9947129 L33.9615588,22.4725549 L35.8044235,22.4725549 L35.8044235,22.4725549 Z M28.6939647,13.9947129 L26.2137824,22.4725549 L28.0564765,22.4725549 L30.5368294,13.9947129 L28.6939647,13.9947129 L28.6939647,13.9947129 Z M21.9009706,23.6594528 L24.1186176,23.6594528 L24.1186176,12.807815 L21.9009706,12.807815 L21.9009706,23.6594528 Z M15.5892059,19.4205318 L21.0480294,19.4205318 L21.0480294,17.5554066 L15.5892059,17.5554066 L15.5892059,19.4205318 Z M12.5186176,23.6594528 L14.5656765,23.6594528 L14.5656765,12.807815 L12.5186176,12.807815 L12.5186176,23.6594528 Z M19.0224647,4.57498266 C19.0224647,4.34252023 18.8923059,3.8213025 18.1487118,3.8213025 L17.8068529,3.8213025 L17.8068529,5.34731407 L18.1207353,5.34731407 C18.9946588,5.34731407 19.0224647,4.69536802 19.0224647,4.57498266 L19.0224647,4.57498266 Z M18.3346529,6.36465511 L17.8068529,6.36465511 L17.8068529,8.06022351 L18.1765176,8.06022351 C18.3812235,8.06022351 19.1526235,8.05327168 19.1526235,7.22142582 C19.1526235,6.65747977 18.8365235,6.36465511 18.3346529,6.36465511 L18.3346529,6.36465511 Z M48.1715588,3.8213025 L46.8068529,3.8213025 L46.8068529,9.24712139 L45.2715588,9.24712139 L45.2715588,3.8213025 L43.7362647,3.8213025 L43.7362647,2.63440462 L48.1715588,2.63440462 L48.1715588,3.8213025 L48.1715588,3.8213025 Z M42.8370941,9.24712139 L42.4379176,7.72110983 L40.4016059,7.72110983 L39.9551765,9.24712139 L38.4867529,9.24712139 L40.6433294,2.63440462 L42.3166294,2.63440462 L44.399,9.24712139 L42.8370941,9.24712139 L42.8370941,9.24712139 Z M36.7421471,3.8213025 L35.3774412,3.8213025 L35.3774412,9.24712139 L33.8421471,9.24712139 L33.8421471,3.8213025 L32.4774412,3.8213025 L32.4774412,2.63440462 L36.7421471,2.63440462 L36.7421471,3.8213025 L36.7421471,3.8213025 Z M32.9892059,9.24712139 L29.4068529,9.24712139 L29.4068529,2.63440462 L30.9421471,2.63440462 L30.9421471,8.06022351 L32.9892059,8.06022351 L32.9892059,9.24712139 L32.9892059,9.24712139 Z M26.8480294,2.63440462 L28.3833235,2.63440462 L28.3833235,9.24712139 L26.8480294,9.24712139 L26.8480294,2.63440462 Z M25.9950882,6.82517148 C25.9950882,8.42510983 25.0660647,9.27374181 23.6071941,9.27374181 C22.1469588,9.27374181 21.2186176,8.42510983 21.2186176,6.82517148 L21.2186176,2.63440462 L22.7539118,2.63440462 L22.7539118,7.0659422 C22.7539118,7.71229287 22.9929059,8.11024277 23.6071941,8.11024277 C24.2199471,8.11024277 24.4597941,7.71229287 24.4597941,7.0659422 L24.4597941,2.63440462 L25.9950882,2.63440462 L25.9950882,6.82517148 L25.9950882,6.82517148 Z M18.6132235,9.24712139 L16.2715588,9.24712139 L16.2715588,2.63440462 L18.6973235,2.63440462 C20.0637353,2.63440462 20.5031706,3.58833141 20.5031706,4.28164933 C20.5031706,5.30729865 19.6833235,5.7534027 19.3421471,5.8005395 L19.3421471,5.81936031 C20.0245,5.9667052 20.6324765,6.40500963 20.6324765,7.42235067 C20.6324765,9.05806551 18.9946588,9.24712139 18.6132235,9.24712139 L18.6132235,9.24712139 Z M10.3009706,11.4513603 L53.1186176,11.4513603 L53.1186176,0.0910520231 L10.3009706,0.0910520231 L10.3009706,11.4513603 Z M41.4526,3.99085934 L40.6803471,6.70376879 L42.1405824,6.70376879 L41.4706824,3.99085934 L41.4526,3.99085934 L41.4526,3.99085934 Z M26.9623235,60.239815 L16.7447706,64.5012871 C16.7848588,64.592 16.8252882,64.68 16.8667412,64.7703738 L26.8954529,60.5875761 C26.9195059,60.4721079 26.9416824,60.3573179 26.9623235,60.239815 L26.9623235,60.239815 Z M16.2546706,43.8855491 L13.0244118,45.2316609 C13.0291882,45.3372948 13.0337941,45.440894 13.0387412,45.5455106 L16.7463059,43.9994913 C16.5927765,43.9642235 16.4286706,43.9257341 16.2546706,43.8855491 L16.2546706,43.8855491 Z M27.1279647,57.5687861 L15.8418471,62.2760231 C15.8734059,62.3635145 15.9047941,62.4513449 15.9384,62.5398536 C15.9402765,62.5437534 15.9423235,62.5490096 15.9435176,62.5520617 L27.1380294,57.8846705 C27.1353,57.7775106 27.1320588,57.6732331 27.1279647,57.5687861 L27.1279647,57.5687861 Z M26.0155588,63.23758 L17.7988353,66.6644933 C17.8455765,66.7514759 17.8933412,66.8393064 17.9394,66.9252717 L25.8485529,63.6277303 C25.9057,63.495815 25.9619941,63.3659345 26.0155588,63.23758 L26.0155588,63.23758 Z M26.2136118,52.7455723 L14.4754353,57.6405087 C14.4976118,57.7381734 14.5191059,57.8344817 14.5423059,57.9328247 L26.2697353,53.0412794 C26.2482412,52.946158 26.2294765,52.8459499 26.2136118,52.7455723 L26.2136118,52.7455723 Z M18.1700353,45.6889557 L13.1649765,47.7767091 C13.1716294,47.8792909 13.1787941,47.9844162 13.1856176,48.0875067 L18.3268059,45.9434605 C18.2686353,45.8622428 18.2169471,45.7783121 18.1700353,45.6889557 L18.1700353,45.6889557 Z M26.8229529,55.0946127 L15.0851176,59.9895491 C15.1124118,60.0838227 15.1422647,60.1775877 15.1707529,60.2718613 L26.8806118,55.3893025 C26.8618471,55.2875684 26.8437647,55.1888863 26.8229529,55.0946127 L26.8229529,55.0946127 Z M21.9753471,73.0498343 L22.5454529,72.8126243 C22.5584176,72.699869 22.5701882,72.5876224 22.5862235,72.4763931 L21.7888941,72.8082158 C21.8509882,72.887738 21.9139353,72.9687861 21.9753471,73.0498343 L21.9753471,73.0498343 Z M24.7513294,50.752262 L13.9957412,55.2378882 C14.0131412,55.3377572 14.0312235,55.435422 14.0486235,55.534104 L25.2042412,50.8829904 C25.0454235,50.8465356 24.8944529,50.8044855 24.7513294,50.752262 L24.7513294,50.752262 Z M22.8881647,49.162158 C22.8441529,49.0995915 22.8027,49.0399075 22.7603941,48.9793757 L13.6320471,52.7859268 C13.6450118,52.8876609 13.6579765,52.9883776 13.6717941,53.0894335 L22.9328588,49.2279461 L22.8881647,49.162158 L22.8881647,49.162158 Z M20.6655706,47.2517611 L13.3620059,50.2966628 C13.3715588,50.3995838 13.3799176,50.5026744 13.3899824,50.6040694 L21.0458118,47.4113141 C20.9298118,47.357395 20.8015294,47.3031368 20.6655706,47.2517611 L20.6655706,47.2517611 Z M39.4036647,55.371499 L49.5173294,51.1549595 C49.3902412,51.1025665 49.2604235,51.0483083 49.1304353,50.9964239 L39.3809765,55.0622274 C39.3884824,55.1634528 39.3961588,55.2673911 39.4036647,55.371499 L39.4036647,55.371499 Z M39.6174118,57.8855183 L49.5470118,53.744262 C49.5621941,53.632185 49.5772059,53.5206166 49.5918765,53.4061657 L39.5882412,57.5770944 C39.5977941,57.6798459 39.6073471,57.7824277 39.6174118,57.8855183 L39.6174118,57.8855183 Z M39.8726118,60.381395 L49.0918824,56.5368632 C49.1137176,56.4225819 49.1348706,56.3057572 49.1570471,56.190289 L39.8395176,60.0768709 C39.8497529,60.178605 39.8615235,60.2801696 39.8726118,60.381395 L39.8726118,60.381395 Z M43.0317353,48.6533179 C42.8957765,48.6046551 42.7606706,48.5554836 42.6231765,48.5054644 L40.7496059,49.2864432 C40.6629471,49.4375183 40.5696353,49.5840154 40.4712059,49.7213565 L43.0317353,48.6533179 L43.0317353,48.6533179 Z M24.5763059,66.4410173 L19.0019941,68.7653025 C19.0535118,68.8507592 19.1053706,68.9348593 19.1580824,69.0184509 L24.4028176,66.8323545 C24.4603059,66.7014566 24.5181353,66.569711 24.5763059,66.4410173 L24.5763059,66.4410173 Z M39.2825471,52.5605857 C39.2743588,52.6126397 39.2689,52.7040308 39.2689,52.82679 L46.3228941,49.8839615 C46.1905176,49.8329249 46.0581412,49.7829056 45.9233765,49.7313603 L39.2921,52.4956455 C39.2890294,52.5181965 39.2863,52.5398998 39.2825471,52.5605857 L39.2825471,52.5605857 Z M40.6433294,73.0735723 L41.8543353,72.568632 C41.9688,72.4133179 42.0832647,72.2602081 42.1926118,72.1074374 L40.658,72.7473449 C40.6537353,72.8558613 40.6489588,72.963869 40.6433294,73.0735723 L40.6433294,73.0735723 Z M23.3142941,69.5695106 L20.3377,70.8099884 C20.3948471,70.8939191 20.4523353,70.9759846 20.5099941,71.0583892 L23.1914706,69.9416879 C23.2315588,69.8160462 23.2730118,69.6936262 23.3142941,69.5695106 L23.3142941,69.5695106 Z M40.4229294,65.35721 L47.4765824,62.4159075 C47.4825529,62.3987823 47.4895471,62.3826744 47.4948353,62.3653796 C47.5349235,62.2583892 47.5726235,62.1498728 47.6104941,62.0413565 L40.3956353,65.0492948 C40.4058706,65.1495029 40.4140588,65.2536108 40.4229294,65.35721 L40.4229294,65.35721 Z M40.1719941,62.8589595 L48.4262471,59.4169557 C48.4584882,59.2980963 48.4905588,59.1785588 48.5222882,59.0581734 L40.1354882,62.554605 C40.1474294,62.6492177 40.1586882,62.7504432 40.1719941,62.8589595 L40.1719941,62.8589595 Z M40.6861471,70.4530713 L44.3114882,68.9413025 C44.3979765,68.7985356 44.4824176,68.6574644 44.5672,68.5150366 L40.6813706,70.1348131 C40.6842706,70.240447 40.6849529,70.3467592 40.6861471,70.4530713 L40.6861471,70.4530713 Z M40.6005118,67.8858112 L46.1454824,65.5739037 C46.2097941,65.4401233 46.2725706,65.3080385 46.3333,65.175106 L40.5831118,67.5734875 C40.5885706,67.6767476 40.5948824,67.7818728 40.6005118,67.8858112 L40.6005118,67.8858112 Z M40.0954,34.2623507 C39.8610118,34.2564162 39.6191176,34.249973 39.3755176,34.2442081 L36.6887529,35.3412408 C36.7510176,35.4197457 36.8056059,35.5024894 36.8581471,35.5879461 L40.0954,34.2623507 L40.0954,34.2623507 Z M38.7615706,37.421025 L45.8002118,34.4863353 C45.5808353,34.474975 45.3553176,34.4627669 45.1204176,34.4498805 L38.5312765,37.1992447 C38.6100882,37.2694412 38.6878765,37.3425202 38.7615706,37.421025 L38.7615706,37.421025 Z M42.9066941,40.8981272 L50.3370059,37.799815 C50.3378588,37.6928247 50.3378588,37.5885472 50.3378588,37.4805395 L42.4710118,40.760447 C42.6168647,40.8062274 42.7625471,40.8533642 42.9066941,40.8981272 L42.9066941,40.8981272 Z M33.7612882,34.3016879 L34.1341941,34.1460347 L33.4001529,34.1323006 L33.2807412,34.1823198 C33.2873941,34.2364085 33.2947294,34.2893102 33.2988235,34.3449249 C33.4508176,34.3240694 33.6050294,34.3103353 33.7612882,34.3016879 L33.7612882,34.3016879 Z M50.0058941,43.1430597 L50.2732059,43.0314913 C50.2766176,42.924501 50.2786647,42.8163237 50.2807118,42.708316 L49.5705529,43.0045318 C49.7174294,43.0520077 49.8612353,43.0977881 50.0058941,43.1430597 L50.0058941,43.1430597 Z M46.4597059,42.0187283 L50.3175588,40.4109904 C50.3196059,40.3038304 50.3206294,40.1971792 50.3216529,40.0888324 L46.0233412,41.8813873 C46.1712412,41.9280154 46.3155588,41.9736262 46.4597059,42.0187283 L46.4597059,42.0187283 Z M39.8181941,39.5833834 L50.3383706,35.1959306 C50.3383706,35.0887707 50.3383706,34.9861888 50.3378588,34.8766551 L39.7535412,39.2910674 C39.7772529,39.3870366 39.7994294,39.4841927 39.8181941,39.5833834 L39.8181941,39.5833834 Z M32.0496059,52.0203776 C30.9392471,51.2767013 29.1298176,51.3872524 28.9288647,51.3872524 C28.7275706,51.3901349 28.7826706,52.0880308 28.7826706,52.0880308 C28.7826706,52.0880308 31.8518941,52.4956455 31.6292765,53.2968015 C31.4076824,54.0977881 31.7021176,61.867052 31.7021176,61.867052 C31.7021176,61.867052 31.7324824,53.7956378 32.5120706,53.8914374 C33.0403824,53.888894 33.0192294,59.1109056 33.0368,62.3594451 L32.9201176,63.9592139 L33.9289765,64.5282466 L33.8706353,53.9838459 C33.8706353,53.9838459 34.5430941,52.8055954 35.6474824,52.6755453 C34.4908941,52.6813102 33.1592824,52.7632062 32.0496059,52.0203776 L32.0496059,52.0203776 Z M56.9131824,48.5692177 C55.2272588,48.3265819 46.5668353,45.0407399 46.1441176,44.8816956 C46.0288,44.8254027 45.9064882,44.7701272 45.7758176,44.7168863 C45.3288765,44.5339345 42.6042412,43.6961541 39.1020647,42.641341 C39.1752471,42.1991368 39.2368294,41.725395 39.2834,41.2255414 C39.2810118,41.2577572 39.2793059,41.2887861 39.2767471,41.3215106 C47.3309,43.8472293 54.4858824,46.1275992 56.7724471,46.8982351 C56.8265235,47.0043776 56.8657588,47.1432447 56.8928824,47.3051715 L39.2668529,41.9205549 C39.2603706,41.9712524 39.2533765,42.0197457 39.2424588,42.0709518 L56.9157412,47.4698112 C56.9493471,47.7801002 56.9461059,48.1582119 56.9131824,48.5692177 L56.9131824,48.5692177 Z M56.4769882,50.9720077 C54.5032824,49.5490867 43.9321,45.9110751 42.8278824,45.6667437 C41.5982824,45.3942659 41.7407235,44.5958227 41.7472059,44.560894 L41.7610235,44.4923931 L38.8912176,43.7081927 C38.9580882,43.4213025 39.0205235,43.1144046 39.0768176,42.7898728 C42.5646647,43.8414644 45.2988529,44.6748362 45.7440882,44.8559229 C45.8745882,44.9091638 45.9539118,44.9620655 46.1245,45.014289 L46.1245,45.0146281 C46.1245,45.0151368 46.1030059,45.0161541 46.1045412,45.0168324 C46.9825588,45.4436069 47.1164706,45.8201927 47.1400118,45.9351522 C47.1616765,46.0351908 47.1321647,46.1216647 47.0659765,46.1877919 C46.9216588,46.3319152 46.8240824,46.305973 46.3974412,46.1649017 C46.1654412,46.088262 45.8478059,45.9826281 45.3957471,45.8769942 C43.7113588,45.4815877 43.3551706,45.0829595 43.3541471,44.8176031 C43.3541471,44.7891175 43.3631882,44.7774181 43.3761529,44.7684316 C43.5829059,44.6202389 44.6159882,44.9703738 45.2988529,45.202158 C45.5004882,45.2709981 45.6872824,45.3342428 45.8397882,45.3818882 L45.8856765,45.2394605 C45.7319765,45.1907977 45.5472294,45.129079 45.3473,45.0612563 C44.3340059,44.7168863 43.5394059,44.4674682 43.2877882,44.6471985 C43.2308118,44.687553 43.2009588,44.7468979 43.2023235,44.8191291 C43.2047118,45.288632 43.9104353,45.6830212 45.3590706,46.0229827 C45.8039647,46.1275992 46.1173353,46.2311985 46.3460941,46.3073295 C46.5705882,46.3804085 46.7295765,46.4334798 46.8609294,46.432632 C46.9747118,46.432632 47.0681941,46.3922775 47.1664529,46.2934258 C47.2671,46.1920308 47.3056529,46.053842 47.2751176,45.9039538 C47.2348588,45.70642 47.0801353,45.5007476 46.8292,45.3003314 C49.0521353,46.1369249 55.4259941,48.5047861 56.9000471,48.7182582 C56.8307882,49.4487091 56.6753824,50.2637688 56.4769882,50.9720077 L56.4769882,50.9720077 Z M56.1701,51.8864277 C55.8792471,51.763499 55.4826294,51.5941118 54.9966235,51.3872524 C51.6493412,49.960262 43.5808588,46.5177495 38.5884235,44.785896 C38.6822471,44.5081618 38.7724882,44.1958382 38.8562471,43.8531638 L41.5921412,44.601079 C41.5796882,44.8313372 41.6359824,45.5563622 42.7946176,45.8132408 C44.3884235,46.1657495 54.8210882,49.8921002 56.4362176,51.1122312 C56.3531412,51.3945434 56.2635824,51.6571869 56.1701,51.8864277 L56.1701,51.8864277 Z M55.9188235,52.4023892 C51.4163176,50.1199846 45.0076588,47.6827746 38.3443118,45.4157996 C38.4101588,45.2698112 38.4753235,45.1065279 38.5392941,44.9273064 C43.5238824,46.6569557 51.5904882,50.0976031 54.9379412,51.5252717 C55.4237765,51.732131 55.8203941,51.9018574 56.1112471,52.0251252 C56.0483,52.1678921 55.9838176,52.2948902 55.9188235,52.4023892 L55.9188235,52.4023892 Z M47.8552882,62.6178497 C46.4238824,66.5519075 44.3247941,70.2457033 40.8758412,74.617896 C40.8178412,74.6855491 40.5269882,75.0246628 40.0945471,75.5267206 C40.4814412,71.3459576 39.8613529,65.1086397 39.4708765,62.0988362 C39.0251294,58.6537803 38.5671,53.1596301 38.6890706,52.4588516 C38.8101882,51.7580732 38.6534176,50.7351368 38.6534176,50.7351368 C39.6546,49.9550058 40.7516529,48.6924855 40.7446588,47.1968247 C44.1291294,48.386605 47.3829294,49.6094489 50.2783235,50.8204239 C49.8655,55.4393218 49.1263412,59.1192139 47.8552882,62.6178497 L47.8552882,62.6178497 Z M38.6152059,77.2406012 C37.1629882,78.9183661 35.4050765,80.9349056 34.5825,81.8225356 C33.7442294,82.7128786 32.8600706,83.6339114 31.9223471,84.593264 C30.2724176,82.9419499 28.7823294,81.4022042 27.4283706,79.947237 C26.6782941,79.118104 25.5904529,77.854736 24.5676059,76.6524085 C24.2446824,75.8736339 24.2506529,75.6430366 24.1599,75.2259268 C23.2336059,71.4266667 26.9336647,65.5218497 28.1238588,62.5362929 C29.3137118,59.5495491 28.3227647,54.2327553 28.1677,53.5780963 C28.0136588,52.9230983 27.7966706,51.1627592 27.8555235,50.5937264 C27.8555235,50.5937264 30.0180706,50.6330636 30.5085118,50.6295029 C30.9981,50.6269595 30.9702941,50.0519923 30.6414,49.8668362 C30.3147235,49.6826975 28.3531294,49.442605 26.2775824,49.2284547 C24.2025471,49.0146435 24.1164,47.191738 23.7109118,46.6191445 C23.3061059,46.0458728 22.4255294,45.9641464 20.7897588,45.6486012 C19.1534765,45.3327168 19.2565118,43.4701349 19.0913824,43.0340347 C18.9247176,42.5972563 16.6611824,42.3222351 15.4668941,42.2049017 C14.2717529,42.0860424 13.5184353,42.1146975 13.6514941,41.3028593 C13.7616941,40.632262 15.6506176,40.1052794 17.0982294,39.7687091 C19.0199059,40.318921 21.1602765,40.9423815 23.4378,41.6236609 C24.3076294,44.0939345 26.6347941,43.0560771 27.2023412,42.6959383 C27.4728941,43.8757148 30.2082765,44.2155067 31.3193176,43.9287861 C31.2505706,45.1653642 33.7790294,45.5631445 34.6258294,45.2223353 C34.5376353,46.3658266 37.2165529,46.5194451 37.7612412,46.2354374 C37.7837588,46.223738 37.8066176,46.2079692 37.8298176,46.1905048 C38.5665882,46.4404316 39.2999471,46.6925626 40.0285294,46.9463892 C39.5814176,48.1938189 39.1413,50.3505819 36.5017882,50.3648247 C33.8621059,50.3800848 32.9815294,49.569264 31.6069294,48.2192524 C31.7814412,49.0617803 32.8684294,51.2292254 35.4881529,51.214474 C37.0347059,51.2066744 37.4147765,50.7329326 37.4649294,51.5622351 C36.2665471,51.8447168 33.4226706,51.9795145 32.0972,51.5956378 C32.857,52.3423661 36.3555941,52.2518227 37.4821588,52.0802312 C37.5901412,54.264632 38.4435941,64.7659653 38.6595588,65.3524624 C38.8422588,65.8473988 39.1761,73.3006089 38.6152059,77.2406012 L38.6152059,77.2406012 Z M21.7750765,73.3372331 C18.9090235,69.5883314 17.0639412,66.2894335 15.7478529,62.7926628 C13.4394529,56.6584355 12.7753529,49.9372023 12.5883882,38.4970328 C13.4930176,38.7481464 14.5126235,39.0335106 15.6231529,39.3483776 C13.7086412,39.835684 13.2712529,40.5415491 12.9324647,40.8808324 C12.5515412,41.2645395 12.7472059,42.5633449 13.3009353,42.6464277 C13.8550059,42.7313757 16.4909353,43.3104123 17.4102353,43.5437225 C18.3288529,43.7755067 18.4395647,44.7489326 18.6255059,45.2355607 C18.7938765,45.6752216 19.1060529,46.0579114 20.0903471,46.4260193 C22.2051294,47.0391368 22.6742471,47.7997688 23.4601471,48.9317303 C24.2457059,50.0642004 25.0019235,50.4350212 26.7622235,50.425526 C26.7632471,50.6993603 26.6214882,52.3498266 26.9531118,53.2476301 C27.2854176,54.1449249 28.3628529,57.9623276 27.2507882,61.6415414 C26.1416235,65.3177033 22.6034529,70.3557457 23.1264765,74.9490405 C22.3893647,74.0734489 21.8523529,73.4299807 21.7750765,73.3372331 L21.7750765,73.3372331 Z M8.74622941,36.5159306 C8.77113529,36.4504817 8.7986,36.3777418 8.82742941,36.3014412 C10.8393471,36.8845472 17.0666706,38.6889711 23.1773118,40.4520231 C23.1839647,40.5062813 23.1902765,40.5613873 23.1979529,40.6136108 C16.0997765,38.4980501 10.3990588,36.958474 8.74622941,36.5159306 L8.74622941,36.5159306 Z M8.64080588,33.0718921 C8.42791176,33.5885318 7.62734118,35.2154297 7.33802353,36.2500655 L7.33734118,36.2493873 C7.10295294,36.8557225 7.48063529,36.8141811 6.02091176,36.6225819 C4.56204118,36.4294566 4.81280588,35.7247784 4.26351176,36.8947206 C3.76027647,37.9653025 1.27429412,41.8961387 5.55776471,48.2431599 L4.96957647,48.6651869 C3.62005294,46.6671291 -0.0801764706,42.3778497 0.310982353,38.2152293 C0.703164706,34.0526089 1.78298824,28.1998459 3.04107647,27.3498574 C4.29899412,26.5000385 4.94364706,26.9834451 5.29284118,25.4826975 C5.59239412,24.196948 5.63623529,24.0950443 5.64254706,24.0923314 C5.58864118,24.0360385 5.67581176,23.9431214 5.17172353,23.9461734 C4.87814118,23.7327013 4.86193529,23.648262 5.06732353,23.1967322 L5.06868824,23.1916455 C5.87488824,23.2152139 6.88801176,23.5104123 7.92791765,23.8271445 L7.48814118,24.0840231 L7.4878,24.0850405 C7.16419412,23.9965318 6.77269412,23.9378651 6.30272353,23.940578 C5.86345882,23.9431214 5.93817647,24.0041618 6.90711765,24.2 C7.08316471,24.2352678 7.25324118,24.2854566 7.41376471,24.3453102 L6.67204706,26.9493642 C6.67204706,26.9493642 5.18895294,27.1569017 4.36313529,27.6867669 C3.53612353,28.2147669 1.48616471,35.1901657 2.33177059,37.6170328 C2.86673529,34.4405549 3.86911176,29.3375723 5.17035882,28.2810636 C6.47194706,27.2243854 7.38015882,27.8941349 7.38015882,27.8941349 C7.7169,26.9354605 8.19574118,25.3246705 8.33084706,24.8661888 C8.54015882,25.0423584 8.6652,25.2139499 8.66605294,25.3326397 C8.6681,25.6315684 7.83665294,28.2790289 7.83665294,28.2790289 C8.23975294,28.4016185 8.69249412,28.520817 8.50825882,29.1354605 C8.32265882,29.7484085 8.11778235,30.2041773 8.04937647,30.2738651 C7.3573,30.1650096 5.98474706,31.8510829 5.9885,35.198474 C5.98986471,35.4484008 6.56713529,33.3228362 7.69352941,32.1908748 C7.69352941,32.1908748 7.9315,32.0396301 8.28393529,32.1367861 C8.6362,32.2349595 8.88952353,32.4708131 8.64080588,33.0718921 L8.64080588,33.0718921 Z M6.05571176,19.716578 C6.47911176,19.6526551 7.67459412,19.3806859 9.30763529,20.2325395 L8.23241765,23.6492794 C7.4907,23.3042312 6.30135882,22.8913603 5.16251176,22.8616879 L6.05571176,19.716578 L6.05571176,19.716578 Z M10.73,21.203422 C10.4345412,22.2734952 10.0167706,24.2540886 9.4627,24.5816724 C9.17508824,24.7524162 8.79672353,24.8633064 8.79672353,24.8633064 C8.79672353,24.8633064 8.72951176,24.7673372 8.57922353,24.6377958 L9.09491176,24.3873603 L10.3454941,20.8960154 C10.4720706,20.991815 10.6000118,21.0933796 10.73,21.203422 L10.73,21.203422 Z M9.14967059,35.4473834 L9.12715294,35.5230058 L23.1580353,39.5594759 C23.1544529,39.7583661 23.1508706,39.9662428 23.1471176,40.1878536 C23.1503588,40.2234605 23.1553059,40.2555067 23.1588882,40.2902659 C17.0799765,38.5368786 10.8980294,36.7458497 8.88065294,36.1607091 C8.96048824,35.9494412 9.05158235,35.7078227 9.14967059,35.4473834 L9.14967059,35.4473834 Z M9.60343529,34.2386127 C10.759,34.5865434 15.0605529,35.8821272 15.7746353,36.1030597 C16.0854471,36.1997071 16.0886882,36.2600694 16.0926118,36.3450173 C16.1016529,36.5428902 16.1702294,36.7117688 16.9476,36.9581349 C18.4201176,37.4240771 19.4931176,37.730975 20.0091471,37.8783198 C20.0947824,37.9044316 20.2005471,37.9229133 20.2566706,37.8552601 C20.3209824,37.777264 20.2652,37.668578 20.1933824,37.5307283 C20.1505647,37.4469672 20.0707294,37.2923314 20.1024588,37.2546898 C20.1135471,37.2409557 20.1913353,37.1814412 20.6466353,37.3130173 C20.9472118,37.4005087 21.8658294,37.6695954 23.1817471,38.0580501 C23.1834529,38.0059961 23.1855,37.9552987 23.1873765,37.9029056 C21.8912471,37.520894 20.9874706,37.2557071 20.6889412,37.1697418 C20.2877176,37.0527476 20.0767,37.0488478 19.9864588,37.1583815 C19.8907588,37.2723237 19.9804882,37.4457803 20.0596412,37.5993988 C20.0836941,37.6468748 20.1173,37.7123237 20.1297529,37.7514913 C20.1142294,37.7497958 20.0894941,37.7457264 20.0500882,37.7343661 C19.5357647,37.5876994 18.4634471,37.2801233 16.9936588,36.8155376 C16.2546706,36.5823969 16.2480176,36.4467514 16.2427294,36.3377264 C16.2362471,36.1913988 16.2021294,36.0789827 15.8193294,35.9585973 C15.1076353,35.7386821 10.8255294,34.4493719 9.65631765,34.0972023 C9.77845882,33.7702967 9.89906471,33.4464432 10.0118235,33.14158 L23.2146706,37.174659 C23.1965882,37.7060501 23.1786765,38.4409094 23.1594,39.4899576 C23.1583765,39.4613025 23.1573529,39.4329865 23.1570118,39.4033141 L9.17474706,35.3809171 C9.30985294,35.0217958 9.45655882,34.6311368 9.60343529,34.2386127 L9.60343529,34.2386127 Z M10.2289824,32.5522004 C11.6075059,32.8414644 16.7911706,34.3793449 23.2518588,36.3526474 C23.2411118,36.5264432 23.2307059,36.7419499 23.2203,37.0191753 L10.0640235,33.0005087 C10.1218529,32.8441773 10.1772941,32.6934412 10.2289824,32.5522004 L10.2289824,32.5522004 Z M23.1338118,34.1116146 C23.0894588,34.3951137 23.0515882,34.6589441 23.0113294,34.8854721 L22.5196941,35.195422 C21.4652882,34.8742813 20.4480706,34.5658574 19.4806647,34.2743892 C20.5528118,34.2184355 21.7645,34.1633295 23.1338118,34.1116146 L23.1338118,34.1116146 Z M23.7081824,39.9708208 L24.2160235,33.1097033 C24.2926176,32.5327013 24.7240353,31.9943584 25.2421118,31.6379499 L25.2062882,31.6391368 C25.6643176,31.3322389 26.2168529,31.1694644 26.7298118,31.2366089 C26.9996824,31.2718767 27.2545412,31.38921 27.4833,31.562158 L27.4519118,31.5631753 C27.5455647,31.6243854 27.6286412,31.6908516 27.7069412,31.7595222 C28.0535765,32.1042312 28.3174765,32.5771252 28.4462706,33.0664663 C28.5197941,33.4082929 28.5250824,33.7199383 28.5145059,33.9269672 L28.5209882,33.9266281 C28.5191118,33.9440925 28.5192824,33.9620655 28.5168941,33.9793603 L27.6523529,40.4896647 C27.5025765,41.6180655 26.4971294,42.4171869 25.4082647,42.2742505 C24.3192294,42.1308054 23.5585765,41.0998998 23.7081824,39.9708208 L23.7081824,39.9708208 Z M28.9442176,34.8681773 C28.9878882,34.5382197 29.0629471,34.2043622 29.1738294,33.9047553 L29.174,33.9047553 C29.1867941,33.8701657 29.2002706,33.8364239 29.2140882,33.8028516 C29.2161353,33.7975954 29.2181824,33.7921696 29.2202294,33.7869133 C29.2326824,33.7574104 29.2456471,33.7284162 29.2587824,33.6995915 C29.2666294,33.6828054 29.2743059,33.6661888 29.2823235,33.6497418 C29.2958,33.6215954 29.3092765,33.5936185 29.3236059,33.566659 C29.3353765,33.5441079 29.3481706,33.5225742 29.3604529,33.5008709 C29.3809235,33.4649249 29.4022471,33.4299961 29.4242529,33.3962543 C29.4363647,33.3776031 29.4486471,33.3594605 29.4612706,33.3414875 C29.4756,33.3213102 29.4899294,33.3009634 29.5047706,33.2818035 C29.5293353,33.2499268 29.5545824,33.2190674 29.5808529,33.1899037 C29.5938176,33.1756609 29.6076353,33.162605 29.6209412,33.1490405 C29.6400471,33.1295414 29.6596647,33.1105511 29.6796235,33.092578 C29.6934412,33.0802004 29.7072588,33.0678227 29.7214176,33.0561233 C29.7531471,33.0303507 29.7855588,33.0059345 29.8193353,32.9840617 C29.8295706,32.9774489 29.8403176,32.9720231 29.8507235,32.9657495 C29.8788706,32.9491329 29.9077,32.9335337 29.9372118,32.9197996 C29.9500059,32.9136956 29.9631412,32.9075915 29.9762765,32.9021657 C30.0156824,32.8858882 30.0557706,32.8713064 30.0975647,32.8604547 C30.1035353,32.8587592 30.1096765,32.8580809 30.1156471,32.8567245 C30.1540294,32.8473988 30.1936059,32.8409557 30.2338647,32.8367168 C30.2466588,32.8351908 30.2594529,32.8340039 30.2722471,32.8331561 C30.3193294,32.8299345 30.3670941,32.8287476 30.4169059,32.8323083 C30.5228412,32.8397688 30.6222941,32.8531638 30.7169706,32.8707977 C30.7449471,32.8760539 30.7700235,32.8838536 30.7971471,32.8899576 C30.8618,32.9043699 30.9256,32.9192909 30.9847941,32.9382813 C31.0141353,32.9476069 31.0407471,32.9593064 31.0687235,32.9696493 C31.1216059,32.9893179 31.1738059,33.0094952 31.2222529,33.0325549 C31.2485235,33.0451021 31.2729176,33.0593449 31.2979941,33.0727399 C31.3442235,33.0978343 31.3892588,33.1236069 31.4313941,33.1517534 C31.4530588,33.1663353 31.4737,33.1817649 31.4945118,33.1971946 C31.5363059,33.2282235 31.5763941,33.2604393 31.6139235,33.2946898 C31.6303,33.3096108 31.6465059,33.3248709 31.6622,33.3404701 C31.7010941,33.3789595 31.7376,33.418975 31.7717176,33.4605164 C31.7826353,33.4737418 31.7935529,33.4867977 31.8039588,33.5005318 C31.8411471,33.5488555 31.8754353,33.5990443 31.9068235,33.6509287 C31.9116,33.6590674 31.9168882,33.6509287 31.9216647,33.659237 C31.9573176,33.720447 31.9897294,33.8328632 32.0180471,33.8328632 L32.0183882,33.8328632 C32.2120059,34.3415337 32.2398118,34.8142582 32.1778882,35.2773179 L31.3894294,41.2172331 C31.2522765,42.2455954 30.4169059,42.9882543 29.5245588,42.8704123 C28.6317,42.7534181 28.0174118,41.82679 28.1547353,40.7984277 L28.9442176,34.8681773 L28.9442176,34.8681773 Z M35.2477941,42.9017803 C35.1005765,43.830104 34.2184647,44.4617033 33.2785235,44.3128324 C32.3365353,44.1663353 31.6920529,43.2953218 31.8391,42.3690328 L32.6870941,37.0247707 C32.8338,36.097973 33.5843882,35.4433141 34.5263765,35.5908285 C35.4668294,35.7380039 36.2404471,36.3294181 36.0934,37.2565549 L35.2477941,42.9017803 L35.2477941,42.9017803 Z M35.6236,43.871815 L36.2805353,39.7371715 C36.3936353,39.0201156 36.4799529,37.7908285 37.1742471,37.8988362 C37.8680294,38.0085395 38.9065706,39.4139961 38.7936412,40.1305434 L38.1379,44.265526 C38.0236059,44.9837688 37.3685471,45.4761618 36.6759588,45.3681541 C35.9809824,45.2586204 35.5103294,44.58921 35.6236,43.871815 L35.6236,43.871815 Z M39.1998118,33.9941118 C46.0673529,34.1592601 49.2713412,34.4342813 50.7476118,34.6346975 C50.7573353,38.1253642 50.7336235,41.2063815 50.6541294,43.9793141 C47.4992706,42.9746898 43.5283176,41.7196301 39.3074529,40.3960694 C39.2202824,38.1684316 37.8354471,37.0937803 36.6160824,36.9667823 C36.6032882,34.6801387 33.9257353,34.6950597 32.6843647,35.0952139 C32.7300824,34.6165549 32.6998882,34.2150443 32.6159588,33.8752524 L39.1998118,33.9941118 L39.1998118,33.9941118 Z M57.4276765,46.249341 C57.3734294,46.178975 57.3002471,46.1260732 57.2147824,46.0980963 C56.5807059,45.8820809 55.1039235,45.4024046 53.0479941,44.7438459 C53.1639941,41.2367322 53.1766176,37.3399769 53.1523941,32.9131869 C53.1483,32.1815491 46.9257529,31.7807168 39.2434824,31.5967476 L30.9235529,31.4453333 L28.9019118,31.5140039 C28.6702529,30.9904123 28.0406118,30.3499961 26.3502529,30.2667437 C25.0251235,30.2012948 24.2724882,30.8337418 23.8185529,31.6866127 C19.4119176,31.8444701 15.5059588,32.0669287 13.0034294,32.3685703 C11.8444529,32.0416647 10.9652412,31.8076763 10.4382941,31.6901734 C10.3895059,31.1172408 9.97685294,30.5621118 8.92705294,30.3340578 C9.27556471,29.6080154 9.56897647,28.28242 8.56301765,28.0628439 L9.22626471,25.285842 C10.2317118,25.2810944 10.3062588,25.2044547 10.5544647,24.5792987 C10.8031824,23.9526166 11.5169235,21.2998998 11.5169235,21.2998998 C11.6888765,20.5748748 8.33238235,18.3450328 5.57260588,19.2594528 C5.20788824,20.3541118 4.41124118,22.8638921 4.28756471,23.1896108 C4.16371765,23.5144817 4.41618824,23.7879769 4.99687059,24.1343815 C4.99687059,24.1343815 4.7299,25.9101503 4.37934118,26.2623198 C4.03014706,26.6139807 2.56991176,26.3474374 2.02590588,27.8736185 C1.28162941,29.6768555 -0.880917647,38.4597303 0.394058824,41.8001696 C1.66886471,45.1407784 4.96121765,49.3713911 4.96121765,49.3713911 L6.21333529,48.4647707 C5.22426471,46.945711 3.77562941,44.0805395 3.97197647,43.279553 C4.27289412,43.5755992 5.17479412,47.0715222 6.25871176,47.664632 L7.58401176,46.4829904 C6.69592941,44.8893256 4.56579412,41.527183 6.37795294,37.5198767 C6.37795294,37.5198767 8.06933529,38.2947514 8.42313529,37.3625279 L8.42177059,37.3611715 C8.7783,37.4562929 9.37177647,37.6153372 10.1639882,37.8308439 C10.5029471,62.0669595 12.8485353,69.2309056 31.9419647,88 C46.5320353,73.3367245 51.2008647,65.712262 52.6024176,51.8250482 C53.7680471,52.3474528 54.8538412,52.8654489 55.8405235,53.3747977 C55.9063706,53.4087091 55.9792118,53.4258343 56.0512,53.424817 C56.1680529,53.424817 56.2843941,53.3778497 56.3702,53.2923931 C57.4029412,52.2536879 58.4327824,47.5517071 57.4276765,46.249341 L57.4276765,46.249341 Z" id="Fill-1" fill="#FFFFFF" sketch:type="MSShapeGroup" mask="url(#mask-2)"></path>
            </g>
        </g>
    </g>
</svg>