<?xml version="1.0" encoding="UTF-8" standalone="no"?>
<svg width="477px" height="79px" viewBox="0 0 477 79" version="1.1" xmlns="http://www.w3.org/2000/svg" xmlns:xlink="http://www.w3.org/1999/xlink" xmlns:sketch="http://www.bohemiancoding.com/sketch/ns">
    <!-- Generator: Sketch 3.3.1 (12005) - http://www.bohemiancoding.com/sketch -->
    <title>snacktn_logo_horiz_light</title>
    <desc>Created with Sketch.</desc>
    <defs></defs>
    <g id="Page-1" stroke="none" stroke-width="1" fill="none" fill-rule="evenodd" sketch:type="MSPage">
        <g id="snacktn_logo_horiz_light" sketch:type="MSLayerGroup">
            <g id="Group" sketch:type="MSShapeGroup">
                <path d="M39.1,0 C17.5,0 0,17.5 0,39.1 C0,60.7 17.5,78.2 39.1,78.2 L39.6,78.2 C39.3,77.3 39.1,76.3 39.1,75.2 C39.1,73.9 39.4,72.7 39.9,71.6 L39.9,71.6 L39.1,71.6 C21.1,71.6 6.5,57 6.5,39 C6.5,21 21.1,6.6 39.1,6.6 C56.5,6.6 70.7,20.2 71.6,37.4 C72.2,37.3 72.8,37.2 73.4,37.2 C75.2,37.2 76.8,37.7 78.2,38.6 C77.9,17.2 60.5,0 39.1,0 L39.1,0 Z" id="Shape" fill="#356DB1"></path>
                <path d="M39.9,71.7 C41.2,68.7 43.9,66.2 47.2,66 C46.6,64.8 46.4,63.7 46.4,62.3 C46.4,57.6 50,53.8 54.5,53.3 L54.5,53.3 C54.5,48.3 58.5,44.3 63.5,44.3 C63.9,44.3 64.2,44.3 64.6,44.4 C65.4,40.9 68.1,38.2 71.6,37.5 C70.7,20.2 56.5,6.6 39.1,6.6 C21.1,6.6 6.5,21.2 6.5,39.2 C6.5,57.2 21.1,71.8 39.1,71.8 C39.4,71.7 39.6,71.7 39.9,71.7 L39.9,71.7 Z" id="Shape" fill="#98C6FE"></path>
                <g transform="translate(19.000000, 15.000000)" id="Shape" fill="#FFFFFF">
                    <path d="M38.6,18.3 L43,11.3 L35.3,14.4 L30.1,8 L30.6,16.3 L23,19.3 L30.9,21.3 L31.5,29.5 L35.9,22.6 L43.8,24.6 L38.6,18.3 Z"></path>
                    <path d="M8.1,13.6 L8.6,21.9 L13,14.9 L21,16.9 L15.7,10.6 L20.1,3.6 L12.4,6.7 L7.2,0.4 L7.7,8.6 L0.1,11.6 L8.1,13.6 Z"></path>
                    <path d="M20.7,30 L13.1,33.1 L7.8,26.7 L8.4,34.9 L0.7,38 L8.7,40 L9.2,48.2 L13.6,41.3 L21.6,43.3 L16.3,37 L20.7,30 Z"></path>
                </g>
                <path d="M75.8,40.3 C71.7,40.3 68.2,43 67.2,46.8 L66.6,46.8 C61.8,46.8 57.8,50.7 57.6,55.5 C53.1,56 49.6,59.8 49.6,64.4 C49.6,65.4 49.8,66.3 50.1,67.2 C46.1,68.2 43.3,71.7 43.3,75.9 C43.3,76.5 43.4,77 43.5,77.6 C44.2,77.6 44.9,77.6 45.5,77.4 C45.4,76.9 45.3,76.4 45.3,75.9 C45.3,72.3 48,69.3 51.6,69 L53.1,68.9 L52.4,67.6 C51.9,66.6 51.6,65.5 51.6,64.4 C51.6,60.6 54.7,57.4 58.5,57.4 L59.7,57.4 L59.6,56.3 L59.6,55.7 C59.6,51.9 62.7,48.7 66.6,48.7 C67,48.7 67.4,48.7 67.8,48.8 L68.8,49 L69,48 C69.6,44.6 72.4,42.2 75.9,42.2 C76.7,42.2 77.3,42.3 78,42.5 C78.1,41.8 78.4,41.1 78.4,40.5 C77.5,40.4 76.7,40.3 75.8,40.3 L75.8,40.3 Z" id="Shape" fill="#98C6FE"></path>
            </g>
            <g id="Group" transform="translate(92.000000, 1.000000)" fill="#98C6FE" sketch:type="MSShapeGroup">
                <path d="M4.6,64.8 C4.6,68.7 6.7,71 10.7,71.8 C11.5,72 12.4,72 13.4,72 C20,72 25.2,69.9 29,65.7 C32.8,61.5 34.8,56.1 34.8,49.7 C34.8,47.2 34.3,44.9 33.4,42.7 C32.5,40.6 31.3,38.8 30,37.4 C28.6,36 27.1,34.6 25.5,33.2 C23.9,31.8 22.4,30.5 21,29.3 C19.6,28.1 18.5,26.8 17.6,25.1 C16.7,23.5 16.2,21.7 16.2,19.9 C16.2,15.1 18.4,10.6 22.7,6.5 C27,2.4 31.7,0.4 36.7,0.4 C37.7,0.4 38.4,0.8 38.9,1.5 C39.4,2.2 39.6,3 39.6,3.7 L39.5,4.7 C39.1,4.5 38.2,4.4 36.7,4.4 C33.3,4.4 30.1,6 26.9,9.1 C23.7,12.3 22.2,15.9 22.2,20.1 C22.2,21.8 22.7,23.4 23.6,25 C24.5,26.6 25.7,28 27,29.2 C28.4,30.4 29.8,31.8 31.4,33.3 C33,34.8 34.4,36.3 35.8,37.7 C37.2,39.1 38.3,40.9 39.2,43 C40.1,45.1 40.6,47.3 40.6,49.6 C40.6,56 38,61.6 32.7,66.6 C27.4,71.5 21,74 13.2,74 C6.7,74 2.6,71.9 0.8,67.7 C-0.6,64.2 -4.37427872e-14,60.4 2.4,56.2 C4.8,52 8.3,49.2 12.9,47.7 C14.6,47.2 16.1,46.9 17.4,46.9 C18.7,46.9 19.6,47.1 20.1,47.6 C20.6,48 20.9,48.7 21.1,49.7 C16.2,49.7 11.9,51.7 8.4,55.7 C6,58.7 4.6,61.7 4.6,64.8 L4.6,64.8 Z M41.2,21.2 C41.2,21.5 41,21.6 40.5,21.6 C40,21.6 39.5,21.5 39.1,21.3 C38.7,21.1 38.5,20.8 38.5,20.4 C38.5,15 39.1,10.7 40.3,7.5 C41.5,4.2 43.1,2.6 45.1,2.6 C45.6,2.6 46.1,2.8 46.4,3.2 C46.8,3.6 47,4 47,4.6 C44.6,7 42.9,10.5 41.9,15.2 C41.4,17.1 41.2,19.1 41.2,21.2 L41.2,21.2 Z" id="Shape"></path>
                <path d="M54.4,48.8 C61.2,32 67.8,23.6 74.2,23.6 C76.9,23.6 78.2,24.9 78.2,27.5 C77.8,28.7 77.4,30.3 76.8,32.3 C76.2,34.3 75.4,37.8 74.5,42.9 C73.5,48 73,52.5 73,56.3 C73,61.9 73.8,64.7 75.4,64.7 C76,64.7 76.6,64.5 77.2,64 C77.8,63.5 78.2,63.3 78.4,63.3 C79.1,63.3 79.1,63.9 78.4,65 C78.1,65.4 77.7,65.9 76.9,66.5 C76.2,67.1 75.5,67.4 74.7,67.4 C72.7,67.4 71.1,66 70,63.1 C68.9,60.2 68.3,56.5 68.3,51.9 C68.3,44.6 69.4,36.7 71.7,28 C71.9,27.3 71.7,27 71.1,27 C70.7,27 70.2,27.2 69.7,27.6 C67.2,29.8 64.5,33.5 61.7,38.6 C58.9,43.7 56.7,48.3 55.2,52.3 C53.6,56.3 52.8,58.7 52.8,59.3 C52.8,60 52.4,60.3 51.7,60.3 C50,60.3 49.2,58.2 49.2,54.1 C49.2,46.3 50,39.2 51.6,32.8 C53.2,26.4 55.1,23.3 57.4,23.3 C58.3,23.3 58.8,23.9 58.8,25 C56.4,32.8 54.6,40.8 53.6,48.9 L54.4,48.9 L54.4,48.8 Z" id="Shape"></path>
                <path d="M90.3,61.5 C86,61.5 83.8,58.1 83.8,51.3 C83.8,47.3 84.8,42.8 86.8,38 C89.6,31.2 93.2,26.6 97.8,24.1 C99.7,23 101.6,22.5 103.2,22.5 C104.9,22.5 106.2,22.9 107.2,23.6 C108.2,24.3 108.8,25.1 109.1,25.8 L109.6,26.8 C109.4,27.7 109,28.1 108.3,28.1 C107.5,28.1 107,27.9 106.8,27.5 C106.7,27.1 106.5,26.8 106.4,26.5 C106.2,26.2 105.9,25.8 105.3,25.3 C104.7,24.8 104.1,24.6 103.3,24.6 C99.9,24.6 96.8,27.7 94,33.8 C90.8,40.9 89.3,47.6 89.3,53.8 C89.3,57 89.9,58.5 91.2,58.5 C92.2,58.5 93.6,57.4 95.4,55.1 C97.2,52.9 99.1,50.1 101.1,46.7 C104.6,40.9 107.4,35.9 109.5,31.6 C111.3,27.8 113.1,25.9 115,25.9 C116,25.9 116.5,26.5 116.5,27.7 C116,28.7 115.4,30.1 114.7,32 C114,33.9 113,37.5 111.8,43 C110.6,48.5 110,53.9 110,59.3 C110,64.7 110.8,67.4 112.4,67.4 C113,67.4 113.6,67.1 114.1,66.6 C114.6,66.1 115.1,65.2 115.5,64.1 C115.7,63.5 116,63.2 116.6,63.2 C116.8,63.2 117,63.3 117.1,63.4 C117.2,63.6 117.2,63.8 117.1,64.2 C117,64.6 116.8,65.1 116.5,65.7 C116.2,66.4 115.7,67.2 114.8,68.3 C113.9,69.4 113,70 112.1,70 C109.9,70 108.2,68.6 107,65.7 C105.8,62.8 105.2,59.4 105.2,55.5 C105.2,51.6 105.5,47.8 106.1,44.1 L105.3,44.1 C98.6,55.8 93.6,61.5 90.3,61.5 L90.3,61.5 Z" id="Shape"></path>
                <path d="M143.6,54.3 C144.3,54.3 144.6,54.5 144.6,54.8 L144.6,55 C144.4,55.6 143.8,56.5 142.9,57.8 C142,59.1 141,60.1 140.2,60.9 C139.4,61.7 138.2,62.4 136.8,63.1 C135.4,63.8 134,64.1 132.6,64.1 C127.1,64.1 123.6,61.4 122,56.1 C120.6,51.2 121.2,45.5 123.7,39.2 C126.2,32.9 129.6,28.4 134,25.6 C136.3,24.2 138.5,23.5 140.6,23.5 C142.7,23.5 144.2,24.1 145.2,25.3 C146.6,20.7 148.4,18.4 150.6,18.4 C151.4,18.4 151.9,18.8 151.9,19.7 C151.5,20.3 150.9,21.2 150.3,22.2 C149.6,23.2 148.8,25.1 147.7,27.7 C146.6,30.3 146,32.6 146,34.6 C146,35.3 145.7,35.6 145.1,35.6 C144.4,35.6 144,35 143.9,33.8 C143.9,31.8 144.1,29.8 144.5,28 C144.2,26.4 143,25.6 141,25.6 C137.2,25.6 133.9,28.5 131,34.2 C128.1,39.9 126.7,45.5 126.7,51 C126.7,57.8 128.9,61.2 133.2,61.2 C134.9,61.2 136.5,60.7 138,59.6 C139.5,58.5 140.6,57.5 141.2,56.4 L142.2,54.7 C142.4,54.5 142.9,54.3 143.6,54.3 L143.6,54.3 Z" id="Shape"></path>
                <path d="M176.2,37 C177.9,34.2 178.8,31.6 178.8,29.2 C178.8,26.8 178,25.5 176.5,25.5 C174.7,25.5 172.6,27.1 170.2,30.3 C167.9,33.5 165.8,37.2 164,41.3 C162.2,45.4 160.6,49.2 159.4,52.7 C158.1,56.2 157.5,58.3 157.5,59 C157.4,59.6 157.1,59.9 156.4,59.9 C154.8,59.9 154,57.8 154,53.6 C154,45.2 154.8,36.8 156.5,28.4 C158.2,20 160.2,13.2 162.5,8.1 C164.8,3 167,0.5 169,0.5 C169.8,0.5 170.3,0.9 170.3,1.8 C167.5,7.9 165.1,15.4 163,24.3 C161.3,31.1 159.9,38.5 158.7,46.3 L159.3,46.3 C165.3,30.9 171.3,23.2 177.3,23.2 C181,23.2 182.9,25.3 182.9,29.6 C182.9,32.3 181.9,35.2 179.9,38.3 C177.9,41.3 175.3,43.4 172.2,44.4 C172.8,45 174.1,48.6 176.1,55.2 C176.8,57.6 177.7,59.7 178.9,61.7 C180.1,63.6 181.4,64.6 182.8,64.6 C184.2,64.6 185.2,64.1 185.9,63.1 C186.2,63.1 186.4,63.2 186.4,63.5 C186.4,63.8 186.3,64.2 186,64.7 C184.8,66.3 183.4,67.1 181.7,67.3 C179.5,67.3 177.5,66.2 175.6,64 C173.7,61.8 172.2,59.4 171.2,56.7 C170.1,54.1 169.2,51.5 168.2,48.9 C167.3,46.3 166.7,44.8 166.5,44.5 C166.1,44.2 165.9,43.9 165.8,43.6 C170.1,43.6 173.5,41.4 176.2,37 L176.2,37 Z" id="Shape"></path>
            </g>
            <g id="Group" transform="translate(290.000000, 38.000000)" fill="#98C6FE" sketch:type="MSShapeGroup">
                <path d="M16.3,0.4 L15.6,4.3 L10.6,4.3 L10.6,22.1 L5.3,22.1 L5.3,4.3 L0.1,4.3 L0.1,0.4 L16.3,0.4 L16.3,0.4 Z" id="Shape"></path>
                <path d="M21.5,0.4 L35.3,0.4 L35.3,4.3 L26.8,4.3 L26.8,8.9 L33.9,8.9 L33.3,12.7 L26.8,12.7 L26.8,18.2 L35.8,18.2 L35.8,22.1 L21.6,22.1 L21.6,0.4 L21.5,0.4 Z" id="Shape"></path>
                <path d="M54.3,0.4 L59.6,0.4 L59.6,22.1 L55.1,22.1 L48.9,12.8 C48.8,12.6 48.6,12.3 48.4,12 C48.2,11.6 47.9,11.3 47.7,10.9 C47.5,10.5 47.2,10.1 47,9.7 C46.8,9.3 46.6,9 46.4,8.8 C46.4,9.1 46.4,9.5 46.5,10 C46.5,10.5 46.6,10.9 46.6,11.4 C46.6,11.9 46.7,12.3 46.7,12.8 L46.7,13.9 L46.8,22.2 L41.5,22.2 L41.5,0.4 L45.8,0.4 L52,9.7 C52.2,10 52.4,10.3 52.6,10.7 C52.8,11.1 53.1,11.5 53.3,11.8 C53.5,12.1 53.8,12.6 54,12.9 C54.2,13.3 54.4,13.6 54.5,13.8 C54.5,13.5 54.5,13.1 54.4,12.6 C54.4,12.2 54.4,11.7 54.3,11.2 C54.3,10.7 54.2,10.3 54.2,9.8 L54.2,8.6 L54.3,0.4 L54.3,0.4 Z" id="Shape"></path>
                <path d="M79.5,0.4 L84.8,0.4 L84.8,22.1 L80.3,22.1 L74.1,12.8 C74,12.6 73.8,12.3 73.6,12 C73.4,11.6 73.1,11.3 72.9,10.9 C72.7,10.5 72.4,10.1 72.2,9.7 C72,9.3 71.8,9 71.6,8.8 C71.6,9.1 71.6,9.5 71.7,10 C71.7,10.5 71.8,10.9 71.8,11.4 C71.8,11.9 71.9,12.3 71.9,12.8 L71.9,13.9 L72,22.2 L66.7,22.2 L66.7,0.4 L71,0.4 L77.2,9.7 C77.4,10 77.6,10.3 77.8,10.7 C78,11.1 78.3,11.5 78.5,11.8 C78.7,12.1 79,12.6 79.2,12.9 C79.4,13.3 79.6,13.6 79.7,13.8 C79.7,13.5 79.7,13.1 79.6,12.6 C79.6,12.2 79.6,11.7 79.5,11.2 C79.5,10.7 79.4,10.3 79.4,9.8 L79.4,8.6 L79.5,0.4 L79.5,0.4 Z" id="Shape"></path>
                <path d="M92,0.4 L105.8,0.4 L105.8,4.3 L97.3,4.3 L97.3,8.9 L104.4,8.9 L103.8,12.7 L97.3,12.7 L97.3,18.2 L106.3,18.2 L106.3,22.1 L92,22.1 L92,0.4 L92,0.4 Z" id="Shape"></path>
                <path d="M118.5,0.1 C119.3,0.1 120,0.2 120.7,0.3 C121.4,0.4 122.1,0.6 122.7,0.8 C123.3,1 123.9,1.2 124.4,1.5 C124.9,1.7 125.3,2 125.7,2.3 L123.8,5.8 C123.5,5.7 123.2,5.5 122.9,5.3 C122.5,5.1 122.1,4.9 121.7,4.7 C121.3,4.5 120.9,4.3 120.4,4.2 C120,4.1 119.5,4 119.1,4 C118.4,4 117.8,4.2 117.4,4.5 C117,4.8 116.9,5.2 116.9,5.7 C116.9,6.1 117,6.4 117.2,6.7 C117.3,7 117.6,7.2 117.9,7.5 C118.2,7.8 118.6,8 119.1,8.3 C119.6,8.6 120.1,8.8 120.8,9.1 C121.7,9.5 122.4,9.8 123,10.2 C123.6,10.6 124.2,11 124.6,11.5 C125,12 125.3,12.5 125.5,13.2 C125.7,13.8 125.8,14.5 125.8,15.3 C125.8,16.3 125.6,17.2 125.3,18.1 C124.9,19 124.4,19.7 123.8,20.4 C123.1,21 122.3,21.5 121.4,21.9 C120.5,22.3 119.4,22.4 118.2,22.4 C117.4,22.4 116.6,22.3 115.8,22.2 C115,22.1 114.3,21.9 113.7,21.6 C113.1,21.4 112.5,21.1 111.9,20.8 C111.4,20.5 110.9,20.3 110.5,20 L112.2,16.2 C112.3,16.3 112.6,16.5 113,16.7 C113.4,16.9 113.9,17.2 114.4,17.4 C114.9,17.6 115.4,17.9 116,18.1 C116.5,18.3 117,18.4 117.4,18.4 C118.3,18.4 119,18.2 119.4,17.8 C119.8,17.4 120,16.8 120,16 C120,15.2 119.7,14.7 119.2,14.3 C118.7,13.9 117.9,13.5 117,13.1 C116.1,12.7 115.2,12.3 114.5,11.9 C113.8,11.5 113.2,11 112.7,10.5 C112.2,10 111.8,9.4 111.5,8.7 C111.2,8 111.1,7.3 111.1,6.4 C111.1,5.4 111.3,4.6 111.7,3.8 C112.1,3 112.6,2.4 113.3,1.8 C114,1.3 114.7,0.8 115.6,0.6 C116.6,0.3 117.6,0.1 118.5,0.1 L118.5,0.1 Z" id="Shape"></path>
                <path d="M138.6,0.1 C139.4,0.1 140.1,0.2 140.8,0.3 C141.5,0.4 142.2,0.6 142.8,0.8 C143.4,1 144,1.2 144.5,1.5 C145,1.7 145.4,2 145.8,2.3 L143.9,5.8 C143.6,5.7 143.3,5.5 143,5.3 C142.7,5.1 142.2,4.9 141.8,4.7 C141.4,4.5 141,4.3 140.5,4.2 C140.1,4.1 139.6,4 139.2,4 C138.5,4 137.9,4.2 137.5,4.5 C137.1,4.8 137,5.2 137,5.7 C137,6.1 137.1,6.4 137.3,6.7 C137.5,7 137.7,7.2 138,7.5 C138.3,7.8 138.7,8 139.2,8.3 C139.7,8.6 140.2,8.8 140.9,9.1 C141.8,9.5 142.5,9.8 143.1,10.2 C143.7,10.6 144.3,11 144.7,11.5 C145.1,12 145.4,12.5 145.6,13.2 C145.8,13.8 145.9,14.5 145.9,15.3 C145.9,16.3 145.7,17.2 145.4,18.1 C145,19 144.5,19.7 143.9,20.4 C143.2,21 142.4,21.5 141.5,21.9 C140.6,22.3 139.5,22.4 138.3,22.4 C137.5,22.4 136.7,22.3 135.9,22.2 C135.1,22.1 134.4,21.9 133.8,21.6 C133.2,21.4 132.6,21.1 132,20.8 C131.5,20.5 131,20.3 130.6,20 L132.3,16.2 C132.4,16.3 132.7,16.5 133.1,16.7 C133.5,16.9 134,17.2 134.5,17.4 C135,17.6 135.5,17.9 136.1,18.1 C136.6,18.3 137.1,18.4 137.5,18.4 C138.4,18.4 139.1,18.2 139.5,17.8 C139.9,17.4 140.1,16.8 140.1,16 C140.1,15.2 139.8,14.7 139.3,14.3 C138.8,13.9 138,13.5 137.1,13.1 C136.2,12.7 135.3,12.3 134.6,11.9 C133.9,11.5 133.3,11 132.8,10.5 C132.3,10 131.9,9.4 131.6,8.7 C131.3,8 131.2,7.3 131.2,6.4 C131.2,5.4 131.4,4.6 131.8,3.8 C132.2,3 132.7,2.4 133.4,1.8 C134.1,1.3 134.8,0.8 135.7,0.6 C136.7,0.3 137.6,0.1 138.6,0.1 L138.6,0.1 Z" id="Shape"></path>
                <path d="M152,0.4 L165.8,0.4 L165.8,4.3 L157.3,4.3 L157.3,8.9 L164.4,8.9 L163.8,12.7 L157.3,12.7 L157.3,18.2 L166.3,18.2 L166.3,22.1 L152,22.1 L152,0.4 L152,0.4 Z" id="Shape"></path>
                <path d="M172,0.4 L185.8,0.4 L185.8,4.3 L177.3,4.3 L177.3,8.9 L184.4,8.9 L183.8,12.7 L177.3,12.7 L177.3,18.2 L186.3,18.2 L186.3,22.1 L172,22.1 L172,0.4 L172,0.4 Z" id="Shape"></path>
            </g>
        </g>
    </g>
</svg>