<svg width="192px" height="307px" viewBox="0 0 192 307" version="1.1" xmlns="http://www.w3.org/2000/svg" xmlns:xlink="http://www.w3.org/1999/xlink" xmlns:sketch="http://www.bohemiancoding.com/sketch/ns">
    <!-- Generator: Sketch 3.3.1 (12005) - http://www.bohemiancoding.com/sketch -->
    <title>Logo</title>
    <desc>Created with Sketch.</desc>
    <defs></defs>
    <g id="Page-1" stroke="none" stroke-width="1" fill="none" fill-rule="evenodd" sketch:type="MSPage">
        <g id="Home" sketch:type="MSArtboardGroup" transform="translate(-48.000000, -167.000000)">
            <g id="Top-Section" sketch:type="MSLayerGroup" transform="translate(48.000000, 167.000000)">
                <g id="Logo" transform="translate(0.300000, 0.000000)" sketch:type="MSShapeGroup">
                    <path d="M95.6,0.7 C42.9,0.7 0.2,43.4 0.2,96.1 C0.2,148.8 42.9,191.5 95.6,191.5 L96.8,191.5 C96,189.2 95.6,186.8 95.6,184.2 C95.6,181.1 96.3,178.1 97.4,175.4 L97.4,175.4 L95.6,175.4 C51.7,175.4 16.2,139.8 16.2,96 C16.2,52.2 51.8,16.6 95.6,16.6 C138,16.6 172.6,49.8 174.9,91.6 C176.3,91.3 177.8,91.1 179.4,91.1 C183.7,91.1 187.7,92.3 191,94.4 C190.2,42.6 147.8,0.7 95.6,0.7 L95.6,0.7 Z" id="Shape" fill="#356DB1"></path>
                    <path d="M97.4,175.5 C100.6,168.3 107.5,163 115.7,162.4 C114.2,159.4 113.3,156 113.3,152.4 C113.3,141 122,131.6 133.1,130.5 L133.1,130.4 C133.1,118.2 142.9,108.4 155.1,108.4 C156,108.4 156.9,108.5 157.8,108.6 C159.7,100.2 166.4,93.6 174.8,91.8 C172.5,50 137.9,16.8 95.5,16.8 C51.6,16.8 16.1,52.4 16.1,96.2 C16.1,140 51.7,175.6 95.5,175.6 C96.2,175.5 96.8,175.5 97.4,175.5 L97.4,175.5 Z" id="Shape" fill="#98C6FE"></path>
                    <g id="Group" transform="translate(46.000000, 38.000000)" fill="#FFFFFF">
                        <path d="M94.5,43.8 L105.2,26.8 L86.6,34.3 L73.8,18.9 L75.1,38.9 L56.5,46.3 L75.9,51.2 L77.2,71.2 L87.9,54.3 L107.3,59.2 L94.5,43.8 Z" id="Shape"></path>
                        <path d="M20.1,32.5 L21.4,52.5 L32.1,35.6 L51.6,40.5 L38.7,25.1 L49.4,8.1 L30.8,15.6 L18,0.1 L19.3,20.1 L0.7,27.6 L20.1,32.5 Z" id="Shape"></path>
                        <path d="M51,72.4 L32.4,79.8 L19.5,64.4 L20.9,84.4 L2.2,91.9 L21.7,96.8 L23,116.8 L33.7,99.8 L53.1,104.8 L40.3,89.4 L51,72.4 Z" id="Shape"></path>
                    </g>
                    <path d="M185,98.8 C175.1,98.8 166.5,105.4 163.9,114.8 C163.4,114.8 162.9,114.7 162.4,114.7 C150.6,114.7 140.9,124.1 140.5,135.8 C129.6,137 121,146.3 121,157.6 C121,160 121.4,162.3 122.1,164.5 C112.4,166.9 105.4,175.5 105.4,185.8 C105.4,187.2 105.5,188.6 105.8,189.9 C107.5,189.9 109.2,189.8 110.8,189.5 C110.5,188.3 110.4,187.1 110.4,185.8 C110.4,177 117,169.7 125.8,168.9 L129.4,168.6 L127.7,165.4 C126.5,163 125.8,160.4 125.8,157.7 C125.8,148.4 133.4,140.8 142.7,140.7 L145.5,140.7 L145.3,138 C145.3,137.6 145.2,137.1 145.2,136.7 C145.2,127.3 152.8,119.7 162.2,119.7 C163.2,119.7 164.1,119.8 165.2,120 L167.7,120.4 L168.1,117.9 C169.5,109.7 176.5,103.7 184.8,103.7 C186.6,103.7 188.3,104 189.9,104.5 C190.2,102.9 190.8,101.2 191,99.7 C189.2,99.1 187.1,98.8 185,98.8 L185,98.8 Z" id="Shape" fill="#98C6FE"></path>
                    <g id="Group" transform="translate(1.000000, 200.000000)" fill="#98C6FE">
                        <path d="M4.9,65 C4.9,68.9 7,71.2 11,72 C11.8,72.2 12.7,72.2 13.7,72.2 C20.3,72.2 25.5,70.1 29.3,65.9 C33.1,61.7 35.1,56.3 35.1,49.9 C35.1,47.4 34.6,45.1 33.7,42.9 C32.8,40.8 31.6,39 30.3,37.6 C28.9,36.2 27.4,34.8 25.8,33.4 C24.2,32 22.7,30.7 21.3,29.5 C19.9,28.3 18.8,27 17.9,25.3 C17,23.7 16.5,21.9 16.5,20.1 C16.5,15.3 18.7,10.8 23,6.7 C27.3,2.6 32,0.6 37,0.6 C38,0.6 38.7,1 39.2,1.7 C39.7,2.4 39.9,3.2 39.9,3.9 L39.8,4.9 C39.4,4.7 38.5,4.6 37,4.6 C33.6,4.6 30.4,6.2 27.2,9.3 C24,12.5 22.5,16.1 22.5,20.3 C22.5,22 23,23.6 23.9,25.2 C24.8,26.8 26,28.2 27.3,29.4 C28.7,30.6 30.1,32 31.7,33.5 C33.3,35 34.7,36.5 36.1,37.9 C37.5,39.3 38.6,41.1 39.5,43.2 C40.4,45.3 40.9,47.5 40.9,49.8 C40.9,56.2 38.3,61.8 33,66.8 C27.7,71.7 21.3,74.2 13.5,74.2 C7,74.2 2.9,72.1 1.1,67.9 C-0.3,64.4 0.3,60.6 2.7,56.4 C5.1,52.2 8.6,49.4 13.2,47.9 C14.9,47.4 16.4,47.1 17.7,47.1 C19,47.1 19.9,47.3 20.4,47.8 C20.9,48.2 21.2,48.9 21.4,49.9 C16.5,49.9 12.2,51.9 8.7,55.9 C6.3,58.9 4.9,61.9 4.9,65 L4.9,65 Z M41.5,21.4 C41.5,21.7 41.3,21.8 40.8,21.8 C40.3,21.8 39.8,21.7 39.4,21.5 C39,21.3 38.8,21 38.8,20.6 C38.8,15.2 39.4,10.9 40.6,7.7 C41.8,4.4 43.4,2.8 45.4,2.8 C45.9,2.8 46.4,3 46.7,3.4 C47.1,3.8 47.3,4.2 47.3,4.8 C44.9,7.2 43.2,10.7 42.2,15.4 C41.7,17.3 41.5,19.3 41.5,21.4 L41.5,21.4 Z" id="Shape"></path>
                        <path d="M54.7,49 C61.5,32.2 68.1,23.8 74.5,23.8 C77.2,23.8 78.5,25.1 78.5,27.7 C78.1,28.9 77.7,30.5 77.1,32.5 C76.5,34.5 75.7,38 74.8,43.1 C73.8,48.2 73.3,52.7 73.3,56.5 C73.3,62.1 74.1,64.9 75.7,64.9 C76.3,64.9 76.9,64.7 77.5,64.2 C78.1,63.7 78.5,63.5 78.7,63.5 C79.4,63.5 79.4,64.1 78.7,65.2 C78.4,65.6 78,66.1 77.2,66.7 C76.5,67.3 75.8,67.6 75,67.6 C73,67.6 71.4,66.2 70.3,63.3 C69.2,60.4 68.6,56.7 68.6,52.1 C68.6,44.8 69.7,36.9 72,28.2 C72.2,27.5 72,27.2 71.4,27.2 C71,27.2 70.5,27.4 70,27.8 C67.5,30 64.8,33.7 62,38.8 C59.2,43.9 57,48.5 55.5,52.5 C53.9,56.5 53.1,58.9 53.1,59.5 C53.1,60.2 52.7,60.5 52,60.5 C50.3,60.5 49.5,58.4 49.5,54.3 C49.5,46.5 50.3,39.4 51.9,33 C53.5,26.6 55.4,23.5 57.7,23.5 C58.6,23.5 59.1,24.1 59.1,25.2 C56.7,33 54.9,41 53.9,49.1 L54.7,49.1 L54.7,49 Z" id="Shape"></path>
                        <path d="M90.6,61.8 C86.3,61.8 84.1,58.4 84.1,51.6 C84.1,47.6 85.1,43.1 87.1,38.3 C89.9,31.5 93.5,26.9 98.1,24.4 C100,23.3 101.9,22.8 103.5,22.8 C105.2,22.8 106.5,23.2 107.5,23.9 C108.5,24.6 109.1,25.4 109.4,26.1 L109.9,27.1 C109.7,28 109.3,28.4 108.6,28.4 C107.8,28.4 107.3,28.2 107.1,27.8 C107,27.4 106.8,27.1 106.7,26.8 C106.5,26.5 106.2,26.1 105.6,25.6 C105,25.1 104.4,24.9 103.6,24.9 C100.2,24.9 97.1,28 94.3,34.1 C91.1,41.2 89.6,47.9 89.6,54.1 C89.6,57.3 90.2,58.8 91.5,58.8 C92.5,58.8 93.9,57.7 95.7,55.4 C97.5,53.2 99.4,50.4 101.4,47 C104.9,41.2 107.7,36.2 109.8,31.9 C111.6,28.1 113.4,26.2 115.3,26.2 C116.3,26.2 116.8,26.8 116.8,28 C116.3,29 115.7,30.4 115,32.3 C114.3,34.2 113.3,37.8 112.1,43.3 C110.9,48.8 110.3,54.2 110.3,59.6 C110.3,65 111.1,67.7 112.7,67.7 C113.3,67.7 113.9,67.4 114.4,66.9 C114.9,66.4 115.4,65.5 115.8,64.4 C116,63.8 116.3,63.5 116.9,63.5 C117.1,63.5 117.3,63.6 117.4,63.7 C117.5,63.9 117.5,64.1 117.4,64.5 C117.3,64.9 117.1,65.4 116.8,66 C116.5,66.7 116,67.5 115.1,68.6 C114.2,69.7 113.3,70.3 112.4,70.3 C110.2,70.3 108.5,68.9 107.3,66 C106.1,63.1 105.5,59.7 105.5,55.8 C105.5,51.9 105.8,48.1 106.4,44.4 L105.6,44.4 C98.9,56 93.9,61.8 90.6,61.8 L90.6,61.8 Z" id="Shape"></path>
                        <path d="M143.9,54.5 C144.6,54.5 144.9,54.7 144.9,55 L144.9,55.2 C144.7,55.8 144.1,56.7 143.2,58 C142.3,59.3 141.3,60.3 140.5,61.1 C139.7,61.9 138.5,62.6 137.1,63.3 C135.7,64 134.3,64.3 132.9,64.3 C127.4,64.3 123.9,61.6 122.3,56.3 C120.9,51.4 121.5,45.7 124,39.4 C126.5,33.1 129.9,28.6 134.3,25.8 C136.6,24.4 138.8,23.7 140.9,23.7 C143,23.7 144.5,24.3 145.5,25.5 C146.9,20.9 148.7,18.6 150.9,18.6 C151.7,18.6 152.2,19 152.2,19.9 C151.8,20.5 151.2,21.4 150.6,22.4 C149.9,23.4 149.1,25.3 148,27.9 C146.9,30.5 146.3,32.8 146.3,34.8 C146.3,35.5 146,35.8 145.4,35.8 C144.7,35.8 144.3,35.2 144.2,34 C144.2,32 144.4,30 144.8,28.2 C144.5,26.6 143.3,25.8 141.3,25.8 C137.5,25.8 134.2,28.7 131.3,34.4 C128.4,40.1 127,45.7 127,51.2 C127,58 129.2,61.4 133.5,61.4 C135.2,61.4 136.8,60.9 138.3,59.8 C139.8,58.7 140.9,57.7 141.5,56.6 L142.5,54.9 C142.7,54.7 143.2,54.5 143.9,54.5 L143.9,54.5 Z" id="Shape"></path>
                        <path d="M176.5,37.2 C178.2,34.4 179.1,31.8 179.1,29.4 C179.1,27 178.3,25.7 176.8,25.7 C175,25.7 172.9,27.3 170.5,30.5 C168.2,33.7 166.1,37.4 164.3,41.5 C162.5,45.6 160.9,49.4 159.7,52.9 C158.4,56.4 157.8,58.5 157.8,59.2 C157.7,59.8 157.4,60.1 156.7,60.1 C155.1,60.1 154.3,58 154.3,53.8 C154.3,45.4 155.1,37 156.8,28.6 C158.5,20.2 160.5,13.4 162.8,8.3 C165.1,3.2 167.3,0.7 169.3,0.7 C170.1,0.7 170.6,1.1 170.6,2 C167.8,8.1 165.4,15.6 163.3,24.5 C161.6,31.3 160.2,38.7 159,46.5 L159.6,46.5 C165.6,31.1 171.6,23.4 177.6,23.4 C181.3,23.4 183.2,25.5 183.2,29.8 C183.2,32.5 182.2,35.4 180.2,38.5 C178.2,41.5 175.6,43.6 172.5,44.6 C173.1,45.2 174.4,48.8 176.4,55.4 C177.1,57.8 178,59.9 179.2,61.9 C180.4,63.8 181.7,64.8 183.1,64.8 C184.5,64.8 185.5,64.3 186.2,63.3 C186.5,63.3 186.7,63.4 186.7,63.7 C186.7,64 186.6,64.4 186.3,64.9 C185.1,66.5 183.7,67.3 182,67.5 C179.8,67.5 177.8,66.4 175.9,64.2 C174,62 172.5,59.6 171.5,56.9 C170.4,54.3 169.5,51.7 168.5,49.1 C167.6,46.5 167,45 166.8,44.7 C166.4,44.4 166.2,44.1 166.1,43.8 C170.4,43.8 173.8,41.6 176.5,37.2 L176.5,37.2 Z" id="Shape"></path>
                    </g>
                    <g id="Group" transform="translate(4.000000, 284.000000)" fill="#98C6FE">
                        <path d="M16.2,0.8 L15.5,4.7 L10.5,4.7 L10.5,22.5 L5.2,22.5 L5.2,4.7 L0,4.7 L0,0.8 L16.2,0.8 L16.2,0.8 Z" id="Shape"></path>
                        <path d="M21.5,0.8 L35.3,0.8 L35.3,4.7 L26.8,4.7 L26.8,9.3 L33.9,9.3 L33.3,13.1 L26.8,13.1 L26.8,18.6 L35.8,18.6 L35.8,22.5 L21.6,22.5 L21.6,0.8 L21.5,0.8 Z" id="Shape"></path>
                        <path d="M54.2,0.8 L59.5,0.8 L59.5,22.5 L55,22.5 L48.8,13.2 C48.7,13 48.5,12.7 48.3,12.4 C48.1,12 47.8,11.7 47.6,11.3 C47.4,10.9 47.1,10.5 46.9,10.1 C46.7,9.7 46.5,9.4 46.3,9.2 C46.3,9.5 46.3,9.9 46.4,10.4 C46.4,10.9 46.5,11.3 46.5,11.8 C46.5,12.3 46.6,12.7 46.6,13.2 L46.6,14.3 L46.7,22.6 L41.4,22.6 L41.4,0.9 L45.7,0.9 L51.9,10.2 C52.1,10.5 52.3,10.8 52.5,11.2 C52.7,11.6 53,12 53.2,12.3 C53.4,12.6 53.7,13.1 53.9,13.4 C54.1,13.8 54.3,14.1 54.4,14.3 C54.4,14 54.4,13.6 54.3,13.1 C54.3,12.7 54.3,12.2 54.2,11.7 C54.2,11.2 54.1,10.8 54.1,10.3 L54.1,9.1 L54.2,0.8 L54.2,0.8 Z" id="Shape"></path>
                        <path d="M79.5,0.8 L84.8,0.8 L84.8,22.5 L80.3,22.5 L74.1,13.2 C74,13 73.8,12.7 73.6,12.4 C73.4,12 73.1,11.7 72.9,11.3 C72.7,10.9 72.4,10.5 72.2,10.1 C72,9.7 71.8,9.4 71.6,9.2 C71.6,9.5 71.6,9.9 71.7,10.4 C71.7,10.9 71.8,11.3 71.8,11.8 C71.8,12.3 71.9,12.7 71.9,13.2 L71.9,14.3 L72,22.6 L66.7,22.6 L66.7,0.9 L71,0.9 L77.2,10.2 C77.4,10.5 77.6,10.8 77.8,11.2 C78,11.6 78.3,12 78.5,12.3 C78.7,12.6 79,13.1 79.2,13.4 C79.4,13.8 79.6,14.1 79.7,14.3 C79.7,14 79.7,13.6 79.6,13.1 C79.6,12.7 79.6,12.2 79.5,11.7 C79.5,11.2 79.4,10.8 79.4,10.3 L79.4,9.1 L79.5,0.8 L79.5,0.8 Z" id="Shape"></path>
                        <path d="M91.9,0.8 L105.7,0.8 L105.7,4.7 L97.2,4.7 L97.2,9.3 L104.3,9.3 L103.7,13.1 L97.2,13.1 L97.2,18.6 L106.2,18.6 L106.2,22.5 L92,22.5 L92,0.8 L91.9,0.8 Z" id="Shape"></path>
                        <path d="M118.5,0.5 C119.3,0.5 120,0.6 120.7,0.7 C121.4,0.8 122.1,1 122.7,1.2 C123.3,1.4 123.9,1.6 124.4,1.9 C124.9,2.1 125.3,2.4 125.7,2.7 L123.8,6.2 C123.5,6.1 123.2,5.9 122.9,5.7 C122.5,5.5 122.1,5.3 121.7,5.1 C121.3,4.9 120.9,4.7 120.4,4.6 C119.9,4.5 119.5,4.4 119.1,4.4 C118.4,4.4 117.8,4.6 117.4,4.9 C117,5.2 116.9,5.6 116.9,6.1 C116.9,6.5 117,6.8 117.2,7.1 C117.3,7.4 117.6,7.6 117.9,7.9 C118.2,8.2 118.6,8.4 119.1,8.7 C119.6,9 120.1,9.2 120.8,9.5 C121.7,9.9 122.4,10.2 123,10.6 C123.6,11 124.2,11.4 124.6,11.9 C125,12.4 125.3,12.9 125.5,13.6 C125.7,14.2 125.8,14.9 125.8,15.7 C125.8,16.7 125.6,17.6 125.3,18.5 C124.9,19.4 124.4,20.1 123.8,20.8 C123.1,21.4 122.3,21.9 121.4,22.3 C120.5,22.7 119.4,22.8 118.2,22.8 C117.4,22.8 116.6,22.7 115.8,22.6 C115,22.5 114.3,22.3 113.7,22 C113.1,21.8 112.5,21.5 111.9,21.2 C111.4,20.9 110.9,20.7 110.5,20.4 L112.2,16.6 C112.3,16.7 112.6,16.9 113,17.1 C113.4,17.3 113.9,17.6 114.4,17.8 C114.9,18 115.4,18.3 116,18.5 C116.5,18.7 117,18.8 117.4,18.8 C118.3,18.8 119,18.6 119.4,18.2 C119.8,17.8 120,17.2 120,16.4 C120,15.6 119.7,15.1 119.2,14.7 C118.7,14.3 117.9,13.9 117,13.5 C116.1,13.1 115.2,12.7 114.5,12.3 C113.8,11.9 113.2,11.4 112.7,10.9 C112.2,10.4 111.8,9.8 111.5,9.1 C111.2,8.4 111.1,7.7 111.1,6.8 C111.1,5.8 111.3,5 111.7,4.2 C112.1,3.4 112.6,2.8 113.3,2.2 C114,1.7 114.7,1.2 115.6,1 C116.6,0.7 117.5,0.5 118.5,0.5 L118.5,0.5 Z" id="Shape"></path>
                        <path d="M138.5,0.5 C139.3,0.5 140,0.6 140.7,0.7 C141.4,0.8 142.1,1 142.7,1.2 C143.3,1.4 143.9,1.6 144.4,1.9 C144.9,2.1 145.3,2.4 145.7,2.7 L143.8,6.2 C143.5,6.1 143.2,5.9 142.9,5.7 C142.6,5.5 142.1,5.3 141.7,5.1 C141.3,4.9 140.9,4.7 140.4,4.6 C140,4.5 139.5,4.4 139.1,4.4 C138.4,4.4 137.8,4.6 137.4,4.9 C137,5.2 136.9,5.6 136.9,6.1 C136.9,6.5 137,6.8 137.2,7.1 C137.4,7.4 137.6,7.6 137.9,7.9 C138.2,8.2 138.6,8.4 139.1,8.7 C139.6,9 140.1,9.2 140.8,9.5 C141.7,9.9 142.4,10.2 143,10.6 C143.6,11 144.2,11.4 144.6,11.9 C145,12.4 145.3,12.9 145.5,13.6 C145.7,14.2 145.8,14.9 145.8,15.7 C145.8,16.7 145.6,17.6 145.3,18.5 C144.9,19.4 144.4,20.1 143.8,20.8 C143.1,21.4 142.3,21.9 141.4,22.3 C140.5,22.7 139.4,22.8 138.2,22.8 C137.4,22.8 136.6,22.7 135.8,22.6 C135,22.5 134.3,22.3 133.7,22 C133.1,21.8 132.5,21.5 131.9,21.2 C131.4,20.9 130.9,20.7 130.5,20.4 L132.2,16.6 C132.3,16.7 132.6,16.9 133,17.1 C133.4,17.3 133.9,17.6 134.4,17.8 C134.9,18 135.4,18.3 136,18.5 C136.5,18.7 137,18.8 137.4,18.8 C138.3,18.8 139,18.6 139.4,18.2 C139.8,17.8 140,17.2 140,16.4 C140,15.6 139.7,15.1 139.2,14.7 C138.7,14.3 137.9,13.9 137,13.5 C136.1,13.1 135.2,12.7 134.5,12.3 C133.8,11.9 133.2,11.4 132.7,10.9 C132.2,10.4 131.8,9.8 131.5,9.1 C131.2,8.4 131.1,7.7 131.1,6.8 C131.1,5.8 131.3,5 131.7,4.2 C132.1,3.4 132.6,2.8 133.3,2.2 C134,1.7 134.7,1.2 135.6,1 C136.6,0.7 137.5,0.5 138.5,0.5 L138.5,0.5 Z" id="Shape"></path>
                        <path d="M152,0.8 L165.8,0.8 L165.8,4.7 L157.3,4.7 L157.3,9.3 L164.4,9.3 L163.8,13.1 L157.3,13.1 L157.3,18.6 L166.3,18.6 L166.3,22.5 L152,22.5 L152,0.8 L152,0.8 Z" id="Shape"></path>
                        <path d="M171.9,0.8 L185.7,0.8 L185.7,4.7 L177.2,4.7 L177.2,9.3 L184.3,9.3 L183.7,13.1 L177.2,13.1 L177.2,18.6 L186.2,18.6 L186.2,22.5 L172,22.5 L172,0.8 L171.9,0.8 Z" id="Shape"></path>
                    </g>
                </g>
            </g>
        </g>
    </g>
</svg>